<svg width="552" height="95" viewBox="0 0 552 95" fill="none" xmlns="http://www.w3.org/2000/svg">
<path d="M64.0356 51.0854C69.1525 49.1351 71.5329 45.4074 71.5329 39.3636C71.5329 26.1167 59.8507 15.3416 45.4914 15.3416C31.1321 15.3416 19.4498 26.1167 19.4498 39.3636C19.435 40.7553 19.5858 42.1297 19.9047 43.4843C19.9442 43.551 19.964 43.6227 19.9615 43.6993C20.9083 47.2614 23.1898 49.6542 26.9471 51.0854C31.6487 52.8825 38.13 53.0283 45.4914 53.0283C52.8527 53.0283 59.334 52.8825 64.0356 51.0854ZM30.2941 47.558C28.3042 47.2391 26.8458 46.3987 25.9633 45.0564C24.5617 42.9331 24.8979 39.9865 25.4269 37.8928C25.6271 37.0425 26.0004 36.2787 26.5467 35.6014C27.093 34.9216 27.7604 34.3926 28.5465 34.0169C33.6732 31.6439 47.2687 26.9102 62.7206 34.1899C63.5017 34.5657 64.174 35.0823 64.7376 35.7423C65.3012 36.3998 65.7116 37.1439 65.9637 37.9744C66.7028 40.3301 66.8832 43.7661 63.5684 46.725C62.4536 47.7211 61.361 48.1216 60.2758 48.1216C58.1327 48.1216 56.0192 46.5544 53.8266 44.9279C51.3844 43.116 48.8606 41.2423 46.0154 41.2423C43.0244 41.2423 41.3312 42.7427 39.5341 44.3297C37.3316 46.2874 35.0451 48.3119 30.2941 47.558Z" fill="#A7A9AC"/>
<path d="M25.2811 61.1238C25.4912 61.1238 25.6964 61.104 25.9015 61.062C26.1042 61.0225 26.302 60.9607 26.4948 60.8816C26.6876 60.8025 26.8705 60.7036 27.0435 60.5874C27.2166 60.4737 27.3773 60.3402 27.5231 60.1944C27.6714 60.0461 27.8024 59.8854 27.9186 59.7124C28.0348 59.5393 28.1312 59.3564 28.2128 59.1636C28.2919 58.9708 28.3512 58.773 28.3932 58.5679C28.4328 58.3627 28.4525 58.1575 28.455 57.9499C28.455 57.7398 28.4328 57.5346 28.3932 57.3294C28.3537 57.1243 28.2919 56.9265 28.2128 56.7337C28.1337 56.5409 28.0348 56.358 27.9211 56.185C27.8049 56.0119 27.6739 55.8512 27.5256 55.7029C27.3797 55.5546 27.219 55.4236 27.046 55.3074C26.873 55.1913 26.6901 55.0948 26.4973 55.0133C26.3044 54.9342 26.1067 54.8748 25.904 54.8328C25.6988 54.7933 25.4937 54.771 25.2835 54.771C25.0759 54.771 24.8707 54.7908 24.6656 54.8328C24.4604 54.8724 24.2626 54.9317 24.0698 55.0133C23.8795 55.0924 23.6966 55.1888 23.5211 55.305C23.348 55.4211 23.1898 55.5521 23.0415 55.7005C22.8932 55.8463 22.7622 56.007 22.646 56.18C22.5298 56.353 22.4334 56.536 22.3519 56.7288C22.2728 56.9216 22.2134 57.1193 22.1714 57.3245C22.1319 57.5297 22.1096 57.7348 22.1096 57.9425C22.1096 58.1526 22.1294 58.3578 22.1714 58.5629C22.211 58.7681 22.2728 58.9659 22.3519 59.1587C22.431 59.3515 22.5298 59.5344 22.6436 59.7099C22.7597 59.8829 22.8907 60.0436 23.0391 60.1894C23.1849 60.3378 23.3456 60.4712 23.5186 60.5849C23.6916 60.7011 23.8746 60.8 24.0674 60.8791C24.2602 60.9607 24.4579 61.02 24.6631 61.062C24.8683 61.1016 25.0734 61.1238 25.2811 61.1238Z" fill="#27AAE1"/>
<path d="M6.47727 65.6523C6.46491 65.467 6.54649 65.3434 6.72199 65.2791L21.8352 59.8038C21.5238 59.2254 21.368 58.6074 21.368 57.9474C21.368 57.8955 21.368 57.8461 21.368 57.7966L1.59279 64.9627C1.3802 65.0418 1.21211 65.1753 1.08852 65.3631C0.964922 65.5535 0.908069 65.7611 0.9229 65.9861C0.93526 66.211 1.01683 66.4112 1.1602 66.5843C1.30605 66.7573 1.48897 66.8685 1.70897 66.9204L15.9002 70.2031C15.8557 69.8447 15.8557 69.4863 15.9002 69.1278C15.9422 68.7966 16.0238 68.4753 16.14 68.1613L6.75907 65.9935C6.58109 65.949 6.48716 65.8353 6.47727 65.6523Z" fill="#E6E7E8"/>
<path d="M20.2557 70.1067C20.3422 68.6928 20.7624 67.3852 21.5213 66.1888L20.6809 66.0825C20.446 66.0528 20.2087 66.0479 19.9714 66.0627C19.7341 66.08 19.5018 66.1195 19.2719 66.1838C19.0445 66.2456 18.822 66.3297 18.6094 66.436C18.3968 66.5422 18.1966 66.6683 18.0112 66.8142C17.8233 66.96 17.6503 67.1231 17.4946 67.3036C17.3388 67.4816 17.2029 67.6744 17.0842 67.882C16.9656 68.0897 16.8692 68.3047 16.795 68.5297C16.7184 68.7571 16.6665 68.987 16.6368 69.2218C16.6072 69.4591 16.5997 69.6964 16.617 69.9337C16.6343 70.171 16.6739 70.4034 16.7357 70.6332C16.7975 70.8631 16.8815 71.0831 16.9878 71.2957C17.0941 71.5083 17.2202 71.711 17.366 71.8989C17.5119 72.0867 17.6725 72.2573 17.853 72.413C18.031 72.5712 18.2238 72.7072 18.4314 72.8258C18.6366 72.9445 18.8516 73.0409 19.0791 73.115C19.304 73.1917 19.5339 73.2436 19.7687 73.2757L20.713 73.3968C20.3373 72.3314 20.184 71.2339 20.2557 70.1067Z" fill="#27AAE1"/>
<path d="M70.2771 6.01022C69.847 5.82977 69.4787 5.56527 69.1722 5.21426L60.9407 16.5405L63.2297 18.0533L70.2771 6.01022Z" fill="#A7A9AC"/>
<path d="M54.2765 44.3297C57.4702 46.6928 60.2116 48.7346 63.079 46.1663C66.1021 43.4645 65.9365 40.34 65.2641 38.1944C65.0417 37.4628 64.6833 36.8077 64.1864 36.2268C63.6895 35.6484 63.0988 35.1911 62.4116 34.8598C47.2415 27.716 33.8981 32.3583 28.8604 34.6893C28.1757 35.018 27.5948 35.4778 27.1177 36.0711C26.6431 36.6643 26.3168 37.3317 26.1438 38.0708C25.6494 40.0187 25.3256 42.7427 26.5788 44.6362C27.3501 45.7931 28.6305 46.5272 30.4053 46.809C34.8127 47.511 36.8694 45.6893 39.0471 43.7636C40.8664 42.152 42.7476 40.4809 46.0204 40.4809C49.1152 40.4983 51.7379 42.4461 54.2765 44.3297Z" fill="#231F20"/>
<path d="M71.8765 43.2816C72.225 43.2248 72.5662 43.1358 72.8999 43.0171C73.2311 42.896 73.55 42.7452 73.8565 42.5648C74.1605 42.3868 74.4473 42.1792 74.7118 41.9468C74.9787 41.712 75.221 41.4574 75.441 41.1805C75.661 40.9012 75.8513 40.6046 76.0169 40.2906C76.1801 39.9767 76.3136 39.6504 76.4174 39.3117C76.5212 38.9731 76.5929 38.627 76.6324 38.276C76.672 37.925 76.6769 37.5715 76.6522 37.218C76.625 36.8646 76.5682 36.516 76.4767 36.1749C76.3877 35.8313 76.2641 35.5001 76.1133 35.1812C75.9601 34.8598 75.7821 34.5583 75.572 34.2715C75.3643 33.9848 75.132 33.7203 74.8749 33.478C74.6154 33.2333 74.3385 33.0183 74.0419 32.8255C73.7428 32.6351 73.4313 32.472 73.1026 32.3385C72.7738 32.205 72.4376 32.1037 72.0915 32.0345C71.743 31.9628 71.3945 31.9257 71.0385 31.9207C71.8641 34.3309 72.2769 36.8126 72.2769 39.3637C72.2868 40.6837 72.1533 41.9913 71.8765 43.2816Z" fill="#A7A9AC"/>
<path d="M71.434 5.50595C71.738 5.50595 72.0297 5.4491 72.309 5.33292C72.5884 5.21674 72.8355 5.05112 73.0481 4.83606C73.2632 4.62101 73.4288 4.37382 73.545 4.09449C73.6587 3.81517 73.718 3.52348 73.718 3.21944C73.718 2.91786 73.6587 2.62618 73.545 2.34438C73.4288 2.06505 73.2632 1.81786 73.0481 1.60281C72.8355 1.39023 72.5884 1.22461 72.309 1.10843C72.0297 0.992249 71.738 0.935394 71.434 0.935394C71.1324 0.935394 70.8407 0.992249 70.5614 1.10843C70.2821 1.22461 70.0349 1.39023 69.8198 1.60281C69.6072 1.81786 69.4416 2.06505 69.3254 2.34438C69.2093 2.62618 69.1524 2.91786 69.1524 3.21944C69.1524 3.52348 69.2093 3.81517 69.3254 4.09449C69.4416 4.37382 69.6072 4.62101 69.8198 4.83606C70.0349 5.05112 70.2821 5.21426 70.5614 5.33044C70.8407 5.44662 71.1324 5.50595 71.434 5.50595Z" fill="#7DDDFF"/>
<path d="M71.303 5.87674C71.5897 5.87674 71.8641 5.82236 72.1261 5.71359C72.3906 5.60236 72.623 5.44663 72.8257 5.2464C73.0259 5.04371 73.1816 4.81135 73.2928 4.54685C73.4016 4.28236 73.456 4.00798 73.456 3.72124C73.456 3.43697 73.4016 3.16259 73.2928 2.89809C73.1816 2.6336 73.0259 2.40124 72.8257 2.19854C72.623 1.99585 72.3906 1.84012 72.1261 1.73135C71.8641 1.62259 71.5897 1.56821 71.303 1.56821C71.0187 1.56821 70.7443 1.62259 70.4798 1.73135C70.2153 1.84012 69.983 1.99585 69.7827 2.19854C69.58 2.40124 69.4243 2.6336 69.3156 2.89809C69.2068 3.16259 69.1524 3.43697 69.1524 3.72124C69.1524 4.00798 69.2068 4.28236 69.3156 4.54685C69.4243 4.81135 69.58 5.04371 69.7827 5.2464C69.983 5.44663 70.2153 5.60236 70.4798 5.71359C70.7443 5.82236 71.0187 5.87674 71.303 5.87674Z" fill="#27AAE1"/>
<path d="M33.7523 72.8975C33.7597 72.853 33.777 72.8134 33.8017 72.7739H31.2458C31.053 74.1161 30.5388 75.6017 28.4921 75.6017C28.4006 75.6017 28.3091 75.6017 28.2152 75.6017C27.8889 75.5844 27.5676 75.5325 27.2487 75.4485C26.9323 75.3644 26.6282 75.2532 26.3341 75.1098C26.0399 74.9665 25.7631 74.7934 25.5011 74.5957C25.2415 74.3979 25.0017 74.1755 24.7842 73.9307C24.5691 73.686 24.3763 73.4215 24.2132 73.1397C24.0476 72.8555 23.9116 72.5588 23.8053 72.2498C23.699 71.9409 23.6224 71.622 23.5779 71.2982C23.5334 70.9743 23.5235 70.648 23.5433 70.3218C23.5631 69.993 23.615 69.6716 23.6966 69.3552C23.7806 69.0388 23.8943 68.7323 24.0377 68.4382C24.1811 68.144 24.3516 67.8647 24.5494 67.6051C24.7471 67.3431 24.9696 67.1058 25.2143 66.8883C25.459 66.6708 25.7235 66.4804 26.0078 66.3148C26.2896 66.1492 26.5862 66.0157 26.8952 65.9069C27.2042 65.8006 27.5206 65.7265 27.8469 65.682C28.1707 65.6375 28.4945 65.6276 28.8208 65.6474C30.87 65.7734 31.3174 67.0811 31.4435 68.1341H33.7572C33.4235 65.0591 31.7377 63.2744 28.9815 63.1063C28.235 63.0618 27.4984 63.1285 26.7716 63.304C26.0449 63.4795 25.3602 63.7564 24.715 64.137C24.0698 64.5177 23.4939 64.9824 22.9896 65.5337C22.4829 66.0849 22.0676 66.6979 21.7438 67.3728C21.4199 68.0476 21.1999 68.7546 21.0862 69.4961C20.9725 70.2352 20.97 70.9768 21.0763 71.7159C21.1826 72.4575 21.3927 73.1669 21.7116 73.8467C22.028 74.524 22.4359 75.142 22.9377 75.6982C23.5903 76.4348 24.3615 77.0132 25.2489 77.4384C26.1388 77.8635 27.0732 78.0984 28.057 78.1429C32.1307 78.3307 33.3667 74.9319 33.7523 72.8975Z" fill="#A7A9AC"/>
<path d="M63.9466 20.0778C63.8453 19.5711 63.5783 19.1731 63.1457 18.8888L60.2017 16.9583C60.0064 16.8322 59.7963 16.7457 59.5714 16.6962C59.3464 16.6468 59.119 16.6419 58.8891 16.6765C58.6617 16.7135 58.4466 16.7877 58.2464 16.9039C58.0462 17.0176 57.8707 17.1659 57.7249 17.3439C59.9224 18.3895 61.9419 19.7095 63.7835 21.3014C63.9812 20.9133 64.0356 20.5054 63.9466 20.0778Z" fill="#A7A9AC"/>
<path d="M14.6321 37.6382C14.6321 37.9596 14.6593 38.2809 14.7137 38.5973C14.768 38.9162 14.8496 39.2277 14.9559 39.5317C15.0647 39.8358 15.1957 40.1299 15.3514 40.4117C15.5071 40.6935 15.6876 40.9605 15.8878 41.2126C16.0905 41.4647 16.3105 41.6971 16.5528 41.9122C16.7925 42.1247 17.0496 42.3176 17.3215 42.4881C17.5959 42.6587 17.8826 42.807 18.1793 42.9281C18.4784 43.0517 18.7849 43.1481 19.0988 43.2198C18.8318 41.9443 18.7033 40.6589 18.7132 39.3587C18.7132 36.8126 19.1235 34.3358 19.9442 31.9281C19.5883 31.9528 19.2348 32.0122 18.8887 32.1036C18.5426 32.1951 18.2089 32.3187 17.8851 32.4744C17.5613 32.6277 17.2548 32.8131 16.9656 33.0257C16.6788 33.2358 16.4119 33.4731 16.1671 33.7376C15.9224 33.9996 15.7049 34.2814 15.5146 34.5854C15.3242 34.8895 15.1611 35.2083 15.0301 35.5421C14.899 35.8758 14.8002 36.2194 14.7334 36.5704C14.6667 36.9239 14.6321 37.2773 14.6321 37.6382Z" fill="#A7A9AC"/>
<path d="M87.6942 41.8207C87.3654 41.8973 87.0317 41.9344 86.6956 41.9344C86.5547 41.9344 86.4138 41.927 86.2729 41.9122C86.2729 43.5041 85.996 48.354 83.2621 52.1854C80.1771 56.4989 74.4547 57.2652 70.7691 57.2652C70.6109 57.2652 70.4576 57.2652 70.3093 57.2652C70.3488 57.4926 70.3711 57.7225 70.3736 57.9524C70.3711 58.4245 70.287 58.8818 70.119 59.3243C70.3637 59.3243 70.6059 59.3342 70.8457 59.3342C75.3297 59.3342 81.4106 58.3009 84.9232 53.3793C88.2009 48.7742 88.3394 43.1012 88.3147 41.623C88.112 41.7045 87.9043 41.7688 87.6942 41.8207Z" fill="#E6E7E8"/>
<path d="M53.876 68.1267L54.7016 66.3247C54.3111 66.4162 53.9156 66.4607 53.5151 66.4607C52.3583 66.4607 51.2731 66.075 50.5958 65.4398C49.9333 66.1591 48.7987 66.5991 47.5455 66.5991C46.3342 66.5991 45.2318 66.1863 44.5545 65.509C43.8821 66.1887 42.7772 66.5991 41.5635 66.5991C41.0493 66.6016 40.545 66.5249 40.0507 66.3741L40.8565 68.1341L53.876 68.1267Z" fill="#A7A9AC"/>
<path d="M66.4581 54.7735C66.2504 54.7735 66.0428 54.7933 65.8401 54.8353C65.6349 54.8748 65.4372 54.9366 65.2444 55.0157C65.0516 55.0948 64.8686 55.1937 64.6956 55.3099C64.5226 55.4261 64.3619 55.5571 64.2136 55.7054C64.0677 55.8512 63.9367 56.0119 63.8206 56.185C63.7044 56.3605 63.608 56.5434 63.5264 56.7362C63.4473 56.929 63.388 57.1268 63.3459 57.3319C63.3064 57.5371 63.2866 57.7423 63.2866 57.9524C63.2866 58.16 63.3064 58.3676 63.3484 58.5703C63.388 58.7755 63.4498 58.9733 63.5289 59.1661C63.608 59.3589 63.7068 59.5418 63.823 59.7148C63.9392 59.8903 64.0702 60.0485 64.2185 60.1969C64.3644 60.3452 64.525 60.4762 64.6981 60.5924C64.8711 60.7085 65.054 60.8049 65.2468 60.884C65.4397 60.9656 65.6374 61.0249 65.8426 61.0645C66.0477 61.1065 66.2529 61.1263 66.463 61.1263C66.6707 61.1238 66.8758 61.104 67.081 61.0645C67.2862 61.0225 67.4839 60.9632 67.6767 60.8816C67.8695 60.8025 68.05 60.7036 68.223 60.5874C68.3961 60.4712 68.5567 60.3402 68.705 60.1919C68.8509 60.0436 68.9819 59.8829 69.0981 59.7099C69.2143 59.5369 69.3107 59.3515 69.3898 59.1587C69.4689 58.9659 69.5307 58.7681 69.5702 58.5629C69.6098 58.3578 69.6295 58.1526 69.6295 57.9425C69.6295 57.7348 69.6098 57.5297 69.5677 57.3245C69.5257 57.1218 69.4664 56.9216 69.3848 56.7312C69.3057 56.5384 69.2068 56.3555 69.0931 56.1825C68.9769 56.0095 68.8459 55.8488 68.6976 55.7029C68.5518 55.5546 68.3911 55.4236 68.2181 55.3099C68.045 55.1937 67.8621 55.0948 67.6693 55.0157C67.479 54.9366 67.2787 54.8748 67.0761 54.8353C66.8709 54.7933 66.6657 54.7735 66.4581 54.7735Z" fill="#7DDDFF"/>
<path d="M66.1565 55.3494C65.9588 55.3494 65.7659 55.3667 65.5756 55.4063C65.3828 55.4434 65.1974 55.5002 65.017 55.5768C64.8365 55.651 64.6635 55.7425 64.5003 55.8512C64.3397 55.96 64.1889 56.0836 64.0504 56.222C63.912 56.3604 63.7884 56.5112 63.6797 56.6744C63.5709 56.8375 63.4794 57.0081 63.4053 57.1885C63.3311 57.369 63.2743 57.5568 63.2347 57.7472C63.1976 57.94 63.1779 58.1328 63.1779 58.3305C63.1779 58.5258 63.1976 58.7186 63.2347 58.9114C63.2743 59.1043 63.3311 59.2896 63.4053 59.4701C63.4794 59.6505 63.5709 59.8236 63.6797 59.9867C63.7884 60.1474 63.912 60.2982 64.0504 60.4366C64.1889 60.575 64.3397 60.6986 64.5003 60.8074C64.6635 60.9162 64.8365 61.0076 65.017 61.0842C65.1974 61.1584 65.3828 61.2153 65.5756 61.2523C65.7659 61.2919 65.9588 61.3117 66.1565 61.3117C66.3518 61.3117 66.5446 61.2919 66.7374 61.2523C66.9277 61.2153 67.1131 61.1584 67.2936 61.0842C67.4765 61.0076 67.6471 60.9162 67.8102 60.8074C67.9709 60.6986 68.1217 60.575 68.2601 60.4366C68.3985 60.2982 68.5221 60.1474 68.6309 59.9867C68.7396 59.8236 68.8311 59.6505 68.9053 59.4701C68.9819 59.2896 69.0363 59.1043 69.0758 58.9114C69.1129 58.7186 69.1327 58.5258 69.1327 58.3305C69.1327 58.1328 69.1129 57.94 69.0758 57.7472C69.0363 57.5568 68.9794 57.369 68.9053 57.1885C68.8311 57.0081 68.7396 56.8375 68.6309 56.6744C68.5221 56.5112 68.3985 56.3604 68.2601 56.222C68.1217 56.0836 67.9709 55.96 67.8102 55.8512C67.6471 55.7425 67.474 55.651 67.2936 55.5768C67.1131 55.5002 66.9277 55.4458 66.7349 55.4063C66.5446 55.3692 66.3518 55.3494 66.1565 55.3494Z" fill="#27AAE1"/>
<path d="M85.4275 23.6942L86.0825 26.0895C87.3951 25.8646 88.856 25.9906 89.4666 28.0201C89.563 28.3315 89.6273 28.6529 89.6594 28.9792C89.6915 29.3054 89.6915 29.6317 89.6594 29.958C89.6273 30.2819 89.563 30.6032 89.4691 30.9171C89.3751 31.2311 89.2491 31.5326 89.0958 31.8218C88.9425 32.1111 88.7621 32.3805 88.5545 32.6351C88.3468 32.8872 88.1145 33.1196 87.8623 33.3272C87.6102 33.5349 87.3383 33.7153 87.0491 33.8711C86.7623 34.0243 86.4607 34.1504 86.1468 34.2443C85.8329 34.3407 85.514 34.4025 85.1877 34.4347C84.8639 34.4668 84.5376 34.4668 84.2113 34.4347C83.885 34.4025 83.5661 34.3407 83.2522 34.2443C82.9408 34.1504 82.6392 34.0243 82.35 33.8686C82.0608 33.7153 81.7913 33.5324 81.5392 33.3248C81.2846 33.1171 81.0547 32.8872 80.847 32.6326C80.6394 32.3805 80.459 32.1086 80.3057 31.8194C80.1524 31.5302 80.0264 31.2286 79.9324 30.9147C79.3812 29.0929 80.2612 28.2129 81.1461 27.7012L79.9596 25.6816C77.5495 27.1895 76.7412 29.1448 77.5001 31.6513C77.7176 32.3681 78.034 33.038 78.4518 33.6585C78.8695 34.2789 79.3688 34.8277 79.9473 35.2998C80.5282 35.7744 81.1635 36.1526 81.8556 36.4344C82.5477 36.7187 83.267 36.8942 84.0111 36.9634C84.7551 37.0351 85.4942 36.9931 86.2259 36.8423C86.9601 36.6915 87.6547 36.4394 88.3122 36.0809C88.9673 35.725 89.558 35.2776 90.0846 34.7461C90.6086 34.2122 91.0437 33.614 91.3922 32.949C91.8544 32.0789 92.1288 31.1544 92.2178 30.1731C92.3068 29.1917 92.2005 28.2326 91.9014 27.2933C90.7421 23.6398 87.5039 23.4174 85.4275 23.6942Z" fill="#A7A9AC"/>
<path d="M90.0153 35.8164C89.2663 36.4394 88.4358 36.9164 87.5211 37.2477C86.6065 37.5789 85.6623 37.747 84.6883 37.747C84.1149 37.747 83.5488 37.6852 82.9877 37.5641L83.1805 38.3872C83.2349 38.6171 83.314 38.8396 83.4128 39.0522C83.5142 39.2672 83.6328 39.4699 83.7713 39.6603C83.9097 39.8506 84.0679 40.0261 84.2409 40.1868C84.414 40.345 84.5994 40.4883 84.802 40.6119C85.0023 40.7355 85.2124 40.8369 85.4349 40.9209C85.6549 41.0025 85.8823 41.0618 86.1146 41.0989C86.347 41.1385 86.5818 41.1533 86.8167 41.1459C87.054 41.136 87.2863 41.1063 87.5162 41.0519C87.7461 41 87.9686 40.9234 88.1836 40.827C88.3987 40.7306 88.6014 40.6119 88.7942 40.476C88.9845 40.34 89.1625 40.1843 89.3256 40.0137C89.4863 39.8432 89.6322 39.6578 89.7557 39.4576C89.8818 39.2573 89.9881 39.0472 90.0722 38.8272C90.1587 38.6072 90.2205 38.3798 90.2625 38.1474C90.302 37.9151 90.3193 37.6803 90.3144 37.4454C90.3119 37.2081 90.2823 36.9758 90.2328 36.7459L90.0153 35.8164Z" fill="#27AAE1"/>
<path d="M44.1985 64.7773L44.2529 64.6982C44.3271 64.5943 44.4284 64.5449 44.557 64.5449C44.6855 64.5474 44.7869 64.6042 44.8585 64.7155C44.8734 64.7402 44.8907 64.7624 44.908 64.7847C45.39 65.4323 46.4208 65.8501 47.5381 65.8501C48.6579 65.8501 49.7109 65.4224 50.1855 64.7624C50.2077 64.7328 50.2275 64.7006 50.2448 64.6685C50.314 64.5548 50.4129 64.493 50.5439 64.4856C50.6774 64.4782 50.7837 64.5276 50.8628 64.6339C50.885 64.6611 50.9023 64.6883 50.9246 64.7155C51.4387 65.3384 52.425 65.7191 53.5077 65.7191C55.0749 65.7191 56.3999 64.891 56.3999 63.917C56.3999 63.3089 55.8808 62.7256 55.0502 62.3968C54.9093 62.34 54.8327 62.2386 54.8154 62.0903C54.6028 60.1202 51.2534 57.7496 47.4145 57.7496C43.19 57.7496 40.0062 60.5009 40.0062 62.2806V62.3029C40.0062 62.4586 39.937 62.5699 39.7961 62.6366C39.0941 62.9827 38.6738 63.5141 38.6738 64.0555C38.6738 65.0319 39.9963 65.86 41.566 65.86C42.6907 65.86 43.7239 65.4274 44.1985 64.7773Z" fill="#E07500"/>
<path d="M44.1986 63.7935L44.2529 63.7243C44.3321 63.6303 44.4334 63.5834 44.557 63.5858C44.6806 63.5883 44.7819 63.6377 44.8586 63.7366C44.8734 63.7589 44.8907 63.7811 44.908 63.8009C45.39 64.3793 46.4208 64.7476 47.5381 64.7476C48.6579 64.7476 49.7109 64.362 50.1855 63.7811C50.2078 63.7564 50.2275 63.7292 50.2448 63.6995C50.2795 63.6501 50.3239 63.613 50.3783 63.5834C50.4302 63.5562 50.4871 63.5389 50.5464 63.5364C50.6057 63.5339 50.6651 63.5438 50.7195 63.5685C50.7763 63.5908 50.8233 63.6254 50.8628 63.6699C50.8851 63.6921 50.9024 63.7168 50.9246 63.7391C51.4388 64.2928 52.4251 64.6314 53.5078 64.6314C55.075 64.6314 56.3999 63.8973 56.3999 63.0297C56.3999 62.4908 55.8808 61.9717 55.0502 61.6775C54.9143 61.6355 54.8352 61.544 54.8154 61.4056C54.6003 59.653 51.2509 57.5445 47.4145 57.5445C43.1876 57.5445 40.0037 59.9892 40.0037 61.5762V61.5935C39.9988 61.7368 39.9296 61.8357 39.7961 61.8901C39.0916 62.1966 38.6714 62.6613 38.6714 63.1508C38.6714 64.0209 39.9939 64.755 41.5635 64.755C42.6907 64.7476 43.724 64.3719 44.1986 63.7935Z" fill="#F7941D"/>
<path d="M25.6642 68.1267H30.6896C30.524 66.9501 29.9703 66.4532 28.7739 66.3816C28.4896 66.3519 28.2053 66.3494 27.9211 66.3791C27.6368 66.4063 27.3575 66.4631 27.0831 66.5472C26.8112 66.6337 26.5491 66.7449 26.2995 66.8809C26.0474 67.0193 25.8125 67.1825 25.595 67.3654C25.3775 67.5508 25.1797 67.7559 25.0042 67.9809C24.8262 68.2083 24.6754 68.4481 24.5469 68.7027C24.4184 68.9598 24.317 69.2267 24.2429 69.5011C24.1687 69.778 24.1217 70.0598 24.1044 70.3465C24.0871 70.6308 24.0995 70.915 24.139 71.1993C24.1786 71.4836 24.2478 71.7604 24.3417 72.0299C24.4381 72.2993 24.5617 72.5564 24.7076 72.8011C24.8559 73.0458 25.0265 73.2732 25.2217 73.4858C25.4145 73.6959 25.6271 73.8838 25.8595 74.0519C26.0918 74.2175 26.3366 74.3609 26.5986 74.4795C26.8581 74.5957 27.13 74.6872 27.4069 74.749C27.6862 74.8132 27.9705 74.8454 28.2548 74.8528C29.6291 74.9368 30.2273 74.3856 30.4894 72.7739H25.6692C25.5678 72.7739 25.4788 72.7393 25.4071 72.6651C25.333 72.5935 25.2984 72.5045 25.2984 72.4031V68.4975C25.2984 68.3962 25.333 68.3096 25.4047 68.238C25.4763 68.1663 25.5629 68.1292 25.6642 68.1267Z" fill="#808285"/>
<path d="M26.035 68.8708H66.6212V72.0324H26.035V68.8708Z" fill="#E6E7E8"/>
<path d="M41.0889 85.6229C41.4918 90.2552 44.0304 93.7134 47.056 93.7134C50.141 93.7134 52.7093 90.0945 53.043 85.3954C50.7046 85.6945 48.3563 85.8379 45.9981 85.8231C44.2628 85.8231 42.6264 85.7563 41.0889 85.6229Z" fill="#414042"/>
<path d="M66.458 61.8654C66.0675 61.8679 65.6868 61.811 65.316 61.6973C64.9428 61.5836 64.5942 61.418 64.2704 61.198C63.9491 60.9804 63.6648 60.7209 63.4176 60.4168C63.1729 60.1153 62.9776 59.7816 62.8318 59.4207C62.6859 59.0598 62.5944 58.684 62.5623 58.2959C62.5277 57.9079 62.55 57.5222 62.6315 57.1416C62.7131 56.7584 62.8466 56.3975 63.0369 56.0564C63.2248 55.7153 63.4596 55.4088 63.7389 55.1393C63.0691 54.247 62.3349 53.4115 61.5414 52.6279C57.1068 53.6809 51.5969 53.7872 45.4938 53.7872C39.7689 53.7872 34.5729 53.6957 30.2817 52.8207C29.5129 53.6018 28.801 54.4299 28.1484 55.3099C28.4253 55.604 28.6502 55.9353 28.8257 56.2986C28.9988 56.6645 29.115 57.0476 29.1693 57.4481C29.2262 57.8485 29.2188 58.249 29.1496 58.647C29.0803 59.0449 28.9543 59.4231 28.7689 59.784C28.581 60.1425 28.3462 60.4638 28.0595 60.7506C27.7752 61.0348 27.4514 61.2697 27.0929 61.455C26.7345 61.6404 26.3538 61.7665 25.9559 61.8357C25.5579 61.9025 25.1599 61.9074 24.7595 61.8505C24.5666 62.4067 24.4109 62.9728 24.27 63.5438C25.7334 62.6638 27.3179 62.2782 29.0235 62.387C32.1628 62.5798 34.1527 64.6784 34.5012 68.1589H40.0457L39.0248 65.9341C39.0248 65.9243 39.0248 65.9144 39.0174 65.9045C38.3451 65.4472 37.9347 64.802 37.9347 64.0777C37.9347 63.304 38.4316 62.5723 39.2844 62.0953C39.4871 59.7494 43.0417 57.0254 47.4268 57.0254C51.5697 57.0254 55.0848 59.5541 55.5248 61.8209C56.5333 62.2831 57.1513 63.084 57.1513 63.9443C57.1513 64.8045 56.5729 65.5362 55.6855 65.9959L54.6967 68.1539H66.9969C67.1007 68.1539 67.1872 68.191 67.2614 68.2627C67.3331 68.3344 67.3702 68.4233 67.3702 68.5247V72.4278C67.3702 72.5317 67.3331 72.6206 67.2614 72.6923C67.1872 72.7665 67.1007 72.8011 66.9969 72.8011H34.432C34.4815 72.8827 34.4963 72.9667 34.479 73.0606C33.7844 76.7982 31.5646 78.9141 28.3635 78.9141C28.2498 78.9141 28.1311 78.9141 28.015 78.9042C27.4662 78.8795 26.9248 78.8004 26.3934 78.662C29.7502 82.9952 36.1797 85.1062 45.9981 85.1062C61.2942 85.1062 68.4183 80.0561 68.4183 69.2168C68.4207 66.6856 68.0252 64.2186 67.2293 61.8159C66.9747 61.858 66.7176 61.8753 66.458 61.8654Z" fill="#A7A9AC"/>
<path d="M53.8341 44.9279C56.0267 46.5544 58.1402 48.1216 60.2833 48.1216C61.3685 48.1216 62.4611 47.7212 63.5759 46.725C66.8932 43.7587 66.7103 40.3302 65.9712 37.9744C65.719 37.1463 65.3087 36.4048 64.7451 35.7472C64.179 35.0897 63.5067 34.5731 62.728 34.1974C47.2761 26.9176 33.6807 31.6513 28.5539 34.0243C27.7679 34.4001 27.098 34.9266 26.5517 35.6063C26.0029 36.2861 25.6272 37.0499 25.427 37.9003C24.898 39.994 24.5618 42.938 25.9634 45.0639C26.8458 46.4061 28.3043 47.249 30.2942 47.5654C35.0452 48.3194 37.3317 46.2973 39.549 44.3396C41.3436 42.7526 43.0393 41.2497 46.0303 41.2497C48.8705 41.2423 51.3943 43.116 53.8341 44.9279ZM39.0521 43.7686C36.8744 45.6991 34.8103 47.516 30.4079 46.8164C28.6355 46.5346 27.3476 45.803 26.5814 44.6412C25.3306 42.7403 25.6544 40.0187 26.1488 38.0783C26.3218 37.3367 26.6456 36.6693 27.1227 36.076C27.5973 35.4852 28.1782 35.023 28.8654 34.6942C33.8982 32.3657 47.2415 27.7185 62.4141 34.8648C63.1013 35.196 63.6945 35.6533 64.1889 36.2342C64.6858 36.8126 65.0467 37.4677 65.2691 38.1994C65.939 40.345 66.1046 43.4695 63.084 46.1737C60.2166 48.7371 57.4653 46.6953 54.2791 44.3297C51.7429 42.4486 49.1177 40.5007 46.0278 40.5007C42.7501 40.4982 40.8714 42.1643 39.0521 43.7735V43.7686Z" fill="#939598"/>
<path d="M58.8743 40.7158C58.8347 40.7207 58.7927 40.7207 58.7531 40.7158C58.5949 40.701 58.4442 40.6565 58.3033 40.5798C58.1624 40.5057 58.0412 40.4043 57.9399 40.2807C57.8385 40.1571 57.7644 40.0187 57.7174 39.8654C57.6705 39.7122 57.6556 39.5565 57.6705 39.3958C57.6853 39.2524 57.6705 39.114 57.6309 38.9756C57.5914 38.8371 57.5271 38.7111 57.4381 38.5974C57.3516 38.4837 57.2478 38.3897 57.1242 38.3156C57.0006 38.2414 56.8696 38.192 56.7287 38.1672C56.5878 38.145 56.4469 38.145 56.306 38.1747C56.1651 38.2043 56.0341 38.2562 55.9154 38.3353C55.7943 38.412 55.6929 38.5108 55.6089 38.627C55.5248 38.7432 55.4655 38.8717 55.4284 39.0102C55.3864 39.161 55.3172 39.2994 55.2233 39.4254C55.1269 39.549 55.0107 39.6504 54.8747 39.7295C54.7388 39.8086 54.5929 39.8605 54.4397 39.8828C54.2839 39.905 54.1282 39.8976 53.9774 39.8605C53.8242 39.8234 53.6833 39.7567 53.5572 39.6652C53.4311 39.5738 53.3248 39.4601 53.2408 39.3266C53.1592 39.1931 53.1024 39.0497 53.0777 38.894C53.0505 38.7383 53.0529 38.585 53.0851 38.4317C53.1395 38.2142 53.2136 38.0041 53.3075 37.8039C53.399 37.6012 53.5102 37.4084 53.6412 37.2279C53.7698 37.045 53.9156 36.8769 54.0763 36.7237C54.237 36.5704 54.41 36.432 54.5954 36.3108C54.7833 36.1897 54.9785 36.0859 55.1837 36.0019C55.3914 35.9153 55.6015 35.8511 55.8215 35.8066C56.039 35.7621 56.259 35.7374 56.4815 35.7349C56.7039 35.73 56.9239 35.7473 57.1439 35.7868C57.3639 35.8239 57.5765 35.8832 57.7842 35.9598C57.9943 36.0389 58.192 36.1353 58.3824 36.2515C58.5727 36.3677 58.7507 36.5012 58.9163 36.6495C59.0819 36.7978 59.2327 36.961 59.3662 37.1389C59.5021 37.3169 59.6183 37.5048 59.7172 37.705C59.8161 37.9028 59.8976 38.1104 59.957 38.3255C60.0188 38.5405 60.0583 38.758 60.0781 38.9805C60.0979 39.2005 60.0954 39.423 60.0731 39.6454C60.0583 39.7938 60.0138 39.9322 59.9471 40.0632C59.8779 40.1967 59.7889 40.3104 59.6776 40.4093C59.5689 40.5081 59.4428 40.5848 59.3044 40.6367C59.166 40.6911 59.0226 40.7158 58.8743 40.7158Z" fill="#00F9FF"/>
<path d="M32.9415 40.7158C32.7907 40.7158 32.6473 40.6886 32.5064 40.6342C32.368 40.5798 32.242 40.5032 32.1307 40.4018C32.0195 40.3005 31.9305 40.1843 31.8637 40.0508C31.7945 39.9173 31.755 39.774 31.7402 39.6256C31.7179 39.4032 31.7154 39.1832 31.7352 38.9607C31.755 38.7382 31.7945 38.5207 31.8563 38.3056C31.9157 38.0906 31.9972 37.8854 32.0961 37.6852C32.195 37.485 32.3136 37.2971 32.4471 37.1191C32.5806 36.9436 32.7314 36.778 32.897 36.6297C33.0626 36.4814 33.2406 36.3479 33.4309 36.2317C33.6213 36.1155 33.819 36.0191 34.0291 35.9425C34.2368 35.8634 34.4494 35.8041 34.6694 35.767C34.8894 35.7274 35.1094 35.7101 35.3318 35.7151C35.5543 35.7176 35.7743 35.7423 35.9918 35.7868C36.2118 35.8313 36.4219 35.8955 36.6296 35.9821C36.8348 36.0661 37.03 36.1699 37.2179 36.291C37.4033 36.4122 37.5763 36.5506 37.737 36.7039C37.8977 36.8596 38.0435 37.0277 38.1721 37.2081C38.3031 37.3886 38.4143 37.5814 38.5058 37.7841C38.5997 37.9868 38.6738 38.1944 38.7282 38.4119C38.7579 38.5627 38.7579 38.716 38.7282 38.8692C38.701 39.02 38.6442 39.1634 38.5601 39.2944C38.4761 39.4254 38.3723 39.5342 38.2462 39.6256C38.1201 39.7171 37.9817 39.7789 37.8334 39.8185C37.6826 39.8555 37.5294 39.8629 37.3761 39.8407C37.2228 39.8185 37.0795 39.7715 36.9435 39.6924C36.81 39.6158 36.6939 39.5169 36.5974 39.3958C36.501 39.2746 36.4318 39.1387 36.3873 38.9904C36.3527 38.8495 36.2934 38.7209 36.2094 38.6023C36.1253 38.4861 36.024 38.3872 35.9028 38.3081C35.7817 38.229 35.6507 38.1746 35.5098 38.145C35.3689 38.1153 35.2255 38.1128 35.0846 38.1376C34.9413 38.1623 34.8103 38.2117 34.6867 38.2859C34.5631 38.36 34.4568 38.4564 34.3703 38.5701C34.2813 38.6863 34.2195 38.8124 34.1799 38.9533C34.1404 39.0917 34.128 39.2326 34.1428 39.376C34.1577 39.5367 34.1428 39.6924 34.0959 39.8456C34.0489 39.9989 33.9748 40.1373 33.8734 40.2609C33.7721 40.3845 33.6509 40.4859 33.51 40.56C33.3691 40.6367 33.2184 40.6811 33.0602 40.6984C33.0206 40.7059 32.9811 40.7133 32.9415 40.7158Z" fill="#00F9FF"/>
<path d="M61.3882 16.8396L69.4565 5.50592L68.9621 4.87805L60.9359 16.5405L61.3882 16.8396Z" fill="#F1F2F2"/>
<path d="M76.3086 39.6158C76.3877 39.4032 76.452 39.1857 76.5064 38.9632C76.5583 38.7432 76.5978 38.5183 76.6225 38.2933C76.6497 38.0659 76.6621 37.8385 76.6596 37.6111C76.6596 37.3837 76.6448 37.1587 76.6151 36.9313C76.5879 36.7064 76.5459 36.4839 76.4915 36.2614C76.4372 36.0414 76.3679 35.8239 76.2888 35.6113C76.2073 35.3987 76.1133 35.1911 76.0095 34.9909C75.9032 34.7882 75.787 34.5929 75.6585 34.4075C75.53 34.2196 75.3915 34.0392 75.2408 33.8686C75.09 33.698 74.9318 33.5349 74.7612 33.3841C74.5931 33.2309 74.4151 33.09 74.2297 32.9589C74.0444 32.8279 73.8515 32.7093 73.6513 32.603C73.4511 32.4942 73.2435 32.3978 73.0333 32.3163C72.8208 32.2322 72.6057 32.163 72.3857 32.1037C72.1657 32.0468 71.9432 32.0023 71.7183 31.9727C71.4933 31.943 71.2659 31.9257 71.0385 31.9207C71.1176 32.1457 71.1868 32.3756 71.2585 32.603L71.2758 32.6475C71.2758 32.6475 76.5706 33.1171 76.3086 39.6158Z" fill="#F1F2F2"/>
<path d="M55.505 17.1882C54.536 16.548 53.4879 16.0981 52.3583 15.8361C51.2682 15.5518 50.1608 15.4579 49.0385 15.5592C47.9163 15.4158 46.7866 15.3441 45.6545 15.3367C45.3702 15.2477 45.0835 15.2477 44.7967 15.3367C38.177 15.4974 32.1678 17.9471 27.6639 21.8551C27.8394 21.7365 34.6668 17.1486 43.7758 16.5554C43.6992 16.9361 43.6992 17.3167 43.7758 17.6949C43.8549 18.0929 43.9884 18.4686 44.1738 18.8295C44.3592 19.188 44.5891 19.5143 44.8659 19.8084C45.1453 20.1026 45.4567 20.3522 45.8028 20.5574C46.1513 20.765 46.5196 20.9183 46.9102 21.0196C46.0772 20.4412 45.4444 19.5563 45.3455 18.5453C45.2763 17.7839 45.474 17.0992 45.9363 16.4936C46.3219 16.4936 46.7075 16.5059 47.103 16.5282C47.0857 16.5677 47.0733 16.6073 47.0635 16.6493C46.7915 17.7543 48.7221 19.1805 51.3769 19.8331C54.0293 20.4857 56.39 20.1199 56.6718 19.0125C56.6841 18.9482 56.694 18.8839 56.6965 18.8196C66.7225 23.3902 70.8382 33.5843 70.2771 40.0064C69.5998 47.7533 65.1578 50.6084 65.1578 50.6084C69.4985 48.5517 71.5329 44.9477 71.5329 39.3637C71.5329 29.3895 64.9081 20.8169 55.505 17.1882Z" fill="#F1F2F2"/>
<path d="M58.0981 17.5169C58.0981 17.5169 59.5071 16.3576 61.5687 17.8457C61.5687 17.8457 59.4824 16.2637 59.4008 16.2686C59.3192 16.276 58.1228 16.5331 58.1055 16.5455C58.0882 16.5578 57.3343 16.8792 57.3343 17.0572C57.3343 17.2351 57.2923 17.5342 57.3343 17.554C57.3763 17.5713 58.0981 17.5169 58.0981 17.5169Z" fill="#E6E7E8"/>
<path d="M61.7491 17.9792C61.7491 17.9792 64.1518 19.8875 63.3509 21.069C62.5475 22.2506 64.3569 21.205 64.3569 21.205L64.043 19.3214L63.4572 18.4093C63.2298 18.3574 63.0073 18.2906 62.7898 18.2066C62.4486 18.1052 62.1001 18.0311 61.7491 17.9792Z" fill="#808285"/>
<path d="M62.4611 17.5466L69.988 5.87674L70.2772 6.01764L63.2274 18.0533L62.4611 17.5466Z" fill="#808285"/>
<path d="M64.0356 51.0854C64.2655 50.9989 64.4904 50.9074 64.7104 50.811C59.8457 52.5488 27.3847 55.3519 22.2456 44.7079C16.9013 33.6362 27.6615 21.87 27.664 21.87C22.6089 26.2551 19.4498 32.4744 19.4498 39.3636C19.435 40.7553 19.5858 42.1297 19.9047 43.4843C19.9442 43.5511 19.964 43.6227 19.9615 43.6994C20.9083 47.2614 23.1898 49.6542 26.9471 51.0854C31.6487 52.8825 38.13 53.0283 45.4914 53.0283C52.8527 53.0283 59.334 52.8825 64.0356 51.0854Z" fill="#808285"/>
<path d="M65.1578 50.6083C65.2938 50.544 65.4273 50.4748 65.5608 50.413C65.4174 50.4575 65.2839 50.5218 65.1578 50.6083Z" fill="#808285"/>
<path d="M92.2104 30.23C92.3117 29.2288 92.2079 28.2475 91.9014 27.2884C90.7446 23.6398 87.5039 23.4273 85.4225 23.6942L85.5585 24.1911C85.5585 24.1911 91.4738 23.1702 92.2104 30.23Z" fill="#F1F2F2"/>
<path d="M89.3108 31.545C89.3183 31.4758 89.3183 31.4041 89.3108 31.3349C89.118 31.812 88.856 32.2495 88.5297 32.645C88.201 33.043 87.8203 33.3816 87.3852 33.6585C86.9526 33.9378 86.4879 34.143 85.9911 34.2789C85.4942 34.4124 84.9875 34.4668 84.4733 34.4446C83.9592 34.4223 83.4598 34.321 82.9778 34.143C82.4933 33.965 82.0484 33.7178 81.643 33.4014C81.2351 33.0875 80.8866 32.7167 80.5949 32.2915C80.3032 31.8664 80.0832 31.4091 79.9324 30.9147C79.9324 30.9147 80.1154 33.8117 82.9877 34.6596C85.6203 35.4333 88.9747 34.1974 89.3108 31.545Z" fill="#F1F2F2"/>
<path d="M77.5001 31.6488C77.7176 32.3656 78.034 33.0331 78.4517 33.656C78.8695 34.2764 79.3688 34.8227 79.9472 35.2973C80.5281 35.7695 81.1634 36.1477 81.8556 36.4319C82.5477 36.7137 83.267 36.8917 84.0111 36.9609C84.7551 37.0301 85.4942 36.9906 86.2259 36.8398C86.96 36.689 87.6546 36.4344 88.3122 36.0784C88.9672 35.72 89.558 35.2751 90.0845 34.7411C90.6086 34.2072 91.0436 33.609 91.3922 32.9465C88.4086 37.6975 81.2895 37.6555 78.5803 33.085C75.8711 28.5144 79.9596 25.6791 79.9596 25.6791C77.5495 27.187 76.7511 29.1398 77.5001 31.6488Z" fill="#808285"/>
<path d="M88.3197 41.6205C88.117 41.6996 87.9093 41.7639 87.6967 41.8133C87.6967 41.8133 88.2455 48.616 83.4871 54.1975C79.9968 58.2885 73.5278 58.6494 70.3217 58.553C70.2822 58.8126 70.2179 59.0647 70.1289 59.3119C70.3736 59.3119 70.6159 59.3218 70.8556 59.3218C75.3397 59.3218 81.4206 58.2885 84.9331 53.367C88.2109 48.7717 88.3419 43.0962 88.3197 41.6205Z" fill="#BCBEC0"/>
<path d="M14.8669 36.0092C14.8669 36.0092 16.9062 32.6524 20.0628 32.7439V31.5549C20.0628 31.5549 15.3613 31.8317 14.8669 36.0092Z" fill="#F1F2F2"/>
<path d="M26.035 68.8708L66.0428 69.7285V72.0299H66.9944V68.4975L26.035 68.8708Z" fill="white"/>
<path d="M52.4844 68.3838L53.5152 66.0899L54.7017 66.3247L53.8761 68.1268L52.4844 68.3838Z" fill="#F1F2F2"/>
<path d="M41.5635 66.5917L42.0777 68.3838L40.8566 68.1268L39.5168 66.0899L41.5635 66.5917Z" fill="#808285"/>
<path d="M26.8878 68.8485V71.2067L66.0428 72.0299H26.035V68.8708L26.8878 68.8485Z" fill="#A7A9AC"/>
<path d="M40.5673 82.9508C33.3444 82.1647 32.017 78.9883 31.7797 77.8463C30.8157 78.5236 29.7453 78.8697 28.5687 78.882C28.4995 78.882 28.4328 78.882 28.3611 78.882C28.2474 78.882 28.1287 78.882 28.0125 78.8746C27.4638 78.8499 26.9249 78.7683 26.3934 78.6323C26.4898 78.7584 26.5862 78.8845 26.6975 79.0081C26.8087 79.1317 26.9076 79.2528 27.0164 79.3714C30.5166 83.2054 36.7557 85.0741 45.9956 85.0741C56.2318 85.0741 62.8071 82.8148 66.0477 78.0663C62.1322 83.0422 49.4192 83.9148 40.5673 82.9508Z" fill="#808285"/>
<path d="M29.0186 62.3548C29.6638 62.3894 30.2892 62.518 30.8948 62.7404C31.7377 59.4083 33.1096 56.311 35.013 53.451C33.4211 53.3225 31.844 53.1049 30.2768 52.7935C29.508 53.5746 28.7986 54.4027 28.146 55.2827C28.4229 55.5769 28.6478 55.9081 28.8209 56.2715C28.9964 56.6373 29.1101 57.0204 29.1669 57.4209C29.2213 57.8213 29.2139 58.2218 29.1472 58.6198C29.0779 59.0177 28.9494 59.3959 28.764 59.7568C28.5786 60.1153 28.3413 60.4366 28.057 60.7234C27.7703 61.0076 27.449 61.2425 27.0881 61.4279C26.7296 61.6132 26.3514 61.7393 25.9534 61.8085C25.5555 61.8753 25.155 61.8802 24.7546 61.8234C24.5618 62.3795 24.406 62.9456 24.2651 63.5166C25.7285 62.6341 27.313 62.2485 29.0186 62.3548Z" fill="#808285"/>
<path d="M47.4145 57.7496C44.6608 57.7496 42.3471 58.9188 41.074 60.2265C41.1086 60.2018 45.8596 57.1218 50.1781 58.5975C53.5868 59.7568 54.4767 61.4352 54.8055 62.0507C54.5435 60.0782 51.2187 57.7496 47.4145 57.7496Z" fill="#FFC280"/>
<path d="M48.5615 57.9474C48.7444 57.9672 48.9199 57.9968 49.0855 58.0389C49.2536 58.0784 49.3995 58.1279 49.5231 58.1847C49.6491 58.2391 49.7431 58.3009 49.8073 58.3627C49.8716 58.4245 49.8988 58.4863 49.8939 58.5481C49.8864 58.6074 49.8469 58.6618 49.7703 58.7088C49.6936 58.7582 49.5898 58.7953 49.4563 58.8249C49.3204 58.8546 49.1696 58.8694 48.9966 58.8744C48.826 58.8793 48.6505 58.8744 48.4676 58.8546C48.2846 58.8348 48.1091 58.8052 47.9435 58.7631C47.7754 58.7211 47.6296 58.6741 47.506 58.6173C47.3799 58.5604 47.286 58.5011 47.2217 58.4393C47.1575 58.375 47.1303 58.3132 47.1352 58.2539C47.1426 58.1946 47.1822 58.1402 47.2588 58.0908C47.3354 58.0438 47.4393 58.0043 47.5727 57.9771C47.7062 57.9474 47.8595 57.9301 48.0325 57.9252C48.2031 57.9202 48.3786 57.9276 48.5615 57.9474Z" fill="#FFC280"/>
<path d="M63.5535 56.8944C63.5535 56.8944 63.21 58.8422 64.7104 59.962C66.4556 61.2672 68.6358 60.2512 68.6358 60.2512L68.2947 61.3735C68.2947 61.3735 65.3185 61.5317 65.1949 61.4971C65.0713 61.46 63.2544 59.8458 63.2025 59.7C63.1531 59.5566 62.7576 58.155 62.8392 57.9499C62.9207 57.7422 63.1976 56.8944 63.2866 56.8054C63.3756 56.7164 63.5535 56.8944 63.5535 56.8944Z" fill="#0F8BB7"/>
<path d="M89.778 39.4798C86.5546 41.2176 85.902 37.6555 85.902 37.6555C85.4991 37.7149 85.0962 37.7445 84.6883 37.7445C84.1149 37.7445 83.5488 37.6827 82.9877 37.5616L83.1805 38.3872C83.2596 38.7358 83.3906 39.067 83.5686 39.376C83.7465 39.6875 83.9665 39.9668 84.2286 40.2115C84.4906 40.4562 84.7798 40.6589 85.1012 40.8171C85.4225 40.9753 85.7611 41.0841 86.1146 41.1434C86.4681 41.2027 86.8216 41.2077 87.1776 41.1607C87.531 41.1162 87.8722 41.0173 88.1984 40.869C88.5247 40.7207 88.8238 40.5304 89.0908 40.2931C89.3602 40.0558 89.5901 39.7863 89.7805 39.4798H89.778Z" fill="#0F8BB7"/>
<path d="M21.5287 59.0623L6.05206 64.7897L7.38689 65.6672L22.2455 60.0535L21.5287 59.0623Z" fill="#BCBEC0"/>
<path d="M0.920379 65.9861L16.2437 69.8719L16.2413 70.6135L0.848694 66.7894L0.920379 65.9861Z" fill="#BCBEC0"/>
<path d="M22.4952 56.4346C22.4952 56.4346 24.6779 54.373 26.6579 55.5892C28.6355 56.8054 28.3388 59.6456 26.9546 60.6443C26.9546 60.6443 28.3438 60.7456 28.5638 59.6061C28.7121 58.6915 28.7417 57.7719 28.6478 56.8499C28.6181 56.756 27.9582 55.2061 27.9582 55.2061C27.9582 55.2061 26.5467 54.6276 26.4453 54.6005C26.035 54.5683 25.6247 54.5683 25.2119 54.6005C25.071 54.6276 23.9833 54.8946 23.9833 54.8946C23.9833 54.8946 23.0292 55.211 22.9525 55.2802C22.7869 55.5373 22.6337 55.8043 22.4952 56.0762V56.4346Z" fill="#7DDDFF"/>
<path d="M22.5694 56.3704C22.5694 56.3704 21.9712 59.3811 24.1118 60.2883C26.2525 61.198 27.5626 60.0535 27.5626 60.0535L26.9471 60.9607L25.2835 61.4081L23.8597 61.0324L22.8833 60.6468C22.8833 60.6468 22.3444 60.0906 22.3345 59.9151C22.3222 59.7396 22.0404 58.4814 22.0404 58.4814L21.9588 57.4654L22.2455 56.7807L22.4013 56.3704H22.5694Z" fill="#0F8BB7"/>
<path d="M26.9274 56.4099C27.0337 56.5162 27.1251 56.6299 27.2042 56.751C27.2809 56.8697 27.3377 56.9883 27.3723 57.102C27.4094 57.2182 27.4218 57.322 27.4119 57.4135C27.402 57.5074 27.3674 57.5816 27.313 57.6359C27.2562 57.6928 27.182 57.7249 27.0905 57.7373C26.9991 57.7472 26.8953 57.7348 26.7791 57.6977C26.6654 57.6607 26.5467 57.6038 26.4281 57.5272C26.3069 57.4506 26.1932 57.3566 26.0869 57.2503C25.9807 57.144 25.8867 57.0303 25.8101 56.9092C25.7335 56.7906 25.6766 56.6719 25.6395 56.5557C25.6049 56.442 25.5901 56.3382 25.6024 56.2443C25.6123 56.1528 25.6445 56.0786 25.7013 56.0243C25.7557 55.9674 25.8299 55.9353 25.9238 55.9229C26.0153 55.913 26.1191 55.9254 26.2328 55.9625C26.349 55.9971 26.4651 56.0564 26.5863 56.133C26.7074 56.2097 26.8211 56.3036 26.9274 56.4099Z" fill="#7DDDFF"/>
<path d="M67.3776 56.0169C67.4913 56.0713 67.5927 56.1355 67.6866 56.2072C67.7805 56.2789 67.8572 56.3555 67.919 56.4346C67.9783 56.5137 68.0178 56.5904 68.0351 56.6645C68.0524 56.7387 68.0475 56.8054 68.0203 56.8623C67.9931 56.9191 67.9437 56.9661 67.8769 56.9982C67.8077 57.0304 67.7237 57.0477 67.6223 57.0501C67.5235 57.0526 67.4172 57.0402 67.301 57.0106C67.1873 56.9834 67.0736 56.9414 66.9599 56.887C66.8461 56.8326 66.7448 56.7708 66.6509 56.6991C66.5569 56.625 66.4803 56.5508 66.4185 56.4717C66.3592 56.3926 66.3196 56.316 66.3023 56.2418C66.285 56.1677 66.29 56.1009 66.3172 56.0441C66.3444 55.9847 66.3938 55.9402 66.4605 55.9081C66.5297 55.876 66.6138 55.8587 66.7151 55.8562C66.814 55.8537 66.9203 55.8661 67.0365 55.8933C67.1502 55.9229 67.2639 55.9625 67.3776 56.0169Z" fill="#7DDDFF"/>
<path d="M17.0496 67.6966C17.0496 67.6966 19.2941 66.4162 21.1505 67.2962L21.9588 65.8748L20.6092 65.7042C20.6092 65.7042 19.0395 65.5312 18.8986 65.7463C18.7577 65.9638 18.0236 66.2777 17.9346 66.3717C17.848 66.4681 17.3561 66.8932 17.3561 66.8932L17.0496 67.6966Z" fill="#7DDDFF"/>
<path d="M17.2869 67.5755C17.2869 67.5755 16.9582 70.2081 20.2557 70.1067L20.9824 73.6317L17.942 72.9618C17.942 72.9618 14.5678 70.0474 17.2869 67.5755Z" fill="#0F8BB7"/>
<path d="M24.9202 64.0036C24.9202 64.0036 29.7824 62.7132 31.6388 64.7476C33.4952 66.782 33.1096 68.4975 33.1096 68.4975L34.1453 68.322C34.1453 68.322 33.3741 64.1247 31.3471 63.351C29.3226 62.5798 26.171 62.8863 24.9202 64.0036Z" fill="#F1F2F2"/>
<path d="M28.4896 75.6042C28.3982 75.6042 28.3042 75.6042 28.2103 75.6042C27.2092 75.54 26.3094 75.2038 25.511 74.5957C25.511 74.5957 27.0065 75.9997 25.1155 76.2123C23.2269 76.4274 21.2099 72.4105 21.2074 72.4105C21.509 73.6514 22.0874 74.744 22.9427 75.6907C23.5977 76.4274 24.369 77.0083 25.2564 77.4334C26.1438 77.8561 27.0806 78.0934 28.062 78.1379C32.1307 78.3307 33.3667 74.9319 33.7523 72.8975C33.7597 72.853 33.777 72.8134 33.8018 72.7739H31.2458C31.053 74.1161 30.5339 75.6042 28.4896 75.6042Z" fill="#808285"/>
<path d="M76.3087 39.6158C76.3087 39.6158 72.5588 41.8875 72.2597 38.7803L71.5997 43.6944C71.5997 43.6944 76.1109 42.8935 76.3087 39.6158Z" fill="#808285"/>
<path d="M14.6321 37.6382C14.6321 37.6382 17.24 40.6861 18.7231 38.4911C18.7231 38.4911 19.1706 43.3483 19.1879 43.4003C19.2076 43.4522 17.3191 42.9257 17.235 42.8762C17.1535 42.8243 14.1056 40.1818 14.6321 37.6382Z" fill="#808285"/>
<path d="M66.4581 61.8654C66.2727 61.8654 66.0873 61.8506 65.9019 61.8234C67.7015 66.0231 68.5617 71.5627 66.0428 78.0712C67.6372 75.7254 68.4183 72.7739 68.4183 69.1896C68.4208 66.6584 68.0253 64.1914 67.2293 61.7888C66.9747 61.8407 66.7176 61.8654 66.4581 61.8654Z" fill="#F1F2F2"/>
<path d="M62.7997 56.5631C63.0073 56.0193 63.3213 55.5422 63.739 55.1393C63.0691 54.247 62.335 53.4115 61.5415 52.6279C60.879 52.7861 60.1918 52.9171 59.4849 53.0357C60.7183 54.0912 61.8233 55.2654 62.7997 56.5631Z" fill="#F1F2F2"/>
<path d="M53.7352 45.0614C55.8759 46.6484 58.066 48.2749 60.3006 48.2749C61.4179 48.2749 62.5451 47.8695 63.6871 46.8511C67.0686 43.8254 66.8833 40.3277 66.1318 37.925C65.8722 37.0722 65.452 36.3084 64.8711 35.6335C64.2927 34.9562 63.6006 34.4248 62.7997 34.0392C47.2835 26.7273 33.6336 31.4832 28.4773 33.8661C27.6689 34.2542 26.9842 34.7956 26.4206 35.4951C25.8595 36.1922 25.4739 36.9783 25.2687 37.8508C24.7298 39.9742 24.3912 42.9726 25.8249 45.1504C26.737 46.5322 28.2325 47.3973 30.2595 47.7212C35.0921 48.4924 37.4082 46.4382 39.6478 44.4558C41.4177 42.8911 43.0912 41.4104 46.013 41.4104C48.8136 41.4104 51.3152 43.2717 53.7352 45.0614ZM38.9384 43.6574C36.7927 45.5558 34.7658 47.3528 30.435 46.6657C28.6997 46.3888 27.4588 45.6818 26.7222 44.5621C25.5036 42.7131 25.8249 40.041 26.3094 38.1228C26.475 37.4059 26.7889 36.7607 27.2487 36.1848C27.7085 35.6113 28.2696 35.1639 28.9321 34.845C33.9451 32.5288 47.2316 27.8965 62.3349 35.0156C63.0024 35.3369 63.5783 35.7794 64.0603 36.343C64.5399 36.9066 64.8884 37.5419 65.1035 38.2513C65.761 40.3499 65.9242 43.4077 62.9678 46.0502C60.3352 48.4034 57.9869 46.8782 54.3754 44.1987C51.9356 42.3893 49.1696 40.3376 46.0228 40.3376C42.6882 40.3302 40.7824 42.0185 38.9384 43.6574Z" fill="#231F20"/>
<path d="M92.769 27.014C91.711 23.6868 88.8288 22.174 84.8638 22.8612C84.8564 22.8587 84.849 22.8587 84.8391 22.8612H84.7847L84.7353 22.8785L84.6883 22.9032L84.6438 22.9329L84.6018 22.965L84.5647 22.9996L84.5301 23.0392L84.5029 23.0812C84.4931 23.096 84.4856 23.1109 84.4758 23.1257C84.4683 23.143 84.4609 23.1578 84.456 23.1727L84.4387 23.2221L84.4263 23.274C84.4263 23.2913 84.4263 23.3086 84.4263 23.3259C84.4263 23.3432 84.4263 23.3605 84.4263 23.3778C84.4263 23.3951 84.4263 23.4149 84.4263 23.4347C84.4263 23.4421 84.4263 23.452 84.4263 23.4619C84.4263 23.4619 84.4263 23.4792 84.4263 23.4866C84.4263 23.4965 84.4263 23.5039 84.4263 23.5138L85.242 26.4751C85.2346 26.527 85.2346 26.5765 85.242 26.6259C85.2742 26.7717 85.3533 26.883 85.4793 26.9646C85.6029 27.0437 85.7389 27.0684 85.8847 27.0362C87.5162 26.6803 88.1984 26.9893 88.5841 28.2648C88.6681 28.5219 88.725 28.7839 88.7546 29.0533C88.7868 29.3228 88.7917 29.5922 88.7695 29.8616C88.7472 30.1311 88.6978 30.3956 88.6211 30.6551C88.547 30.9147 88.4481 31.1643 88.322 31.4041C88.1984 31.6439 88.0501 31.8688 87.8796 32.0814C87.7115 32.2915 87.5211 32.4819 87.3135 32.6549C87.1059 32.8279 86.8834 32.9787 86.6461 33.1072C86.4088 33.2358 86.1616 33.3396 85.902 33.4187C85.645 33.4978 85.3805 33.5522 85.111 33.5769C84.8416 33.6041 84.5746 33.6041 84.3052 33.5769C84.0358 33.5497 83.7713 33.4953 83.5142 33.4162C83.2546 33.3371 83.0074 33.2333 82.7701 33.1048C82.5328 32.9738 82.3104 32.823 82.1027 32.6499C81.8951 32.4769 81.7072 32.2841 81.5391 32.074C81.3686 31.8614 81.2227 31.6365 81.0991 31.3967C80.9731 31.1569 80.8742 30.9072 80.8 30.6477C80.454 29.5081 80.7506 28.8803 81.8901 28.329C81.9 28.3266 81.905 28.3241 81.9124 28.3192H81.9322L81.9594 28.2969L82.0014 28.2673L82.0409 28.2302L82.0755 28.1931C82.0854 28.1783 82.0978 28.1634 82.1077 28.1486L82.1324 28.1066L82.1546 28.0571L82.1719 28.0102L82.1843 27.9583C82.1843 27.941 82.1843 27.9237 82.1843 27.9064C82.1843 27.889 82.1843 27.8742 82.1843 27.8569C82.1843 27.8396 82.1843 27.8223 82.1843 27.805C82.1843 27.7877 82.1843 27.7704 82.1843 27.7531C82.1818 27.7358 82.1769 27.7185 82.1719 27.7012C82.167 27.6839 82.162 27.6666 82.1546 27.6493C82.1497 27.6394 82.1472 27.6295 82.1423 27.6196L82.1299 27.5974L82.12 27.5776L80.5479 24.898C80.538 24.8832 80.5281 24.8684 80.5182 24.856C80.5083 24.8412 80.496 24.8239 80.4836 24.8091C80.4737 24.7992 80.4639 24.7893 80.4515 24.7794C80.4367 24.7646 80.4218 24.7497 80.407 24.7398L80.3675 24.7127C80.3502 24.7127 80.3353 24.6929 80.318 24.6855C80.3032 24.678 80.2884 24.6731 80.271 24.6682L80.2216 24.6484H80.0288L79.9794 24.6607L79.925 24.6706L79.883 24.6904L79.8286 24.7151C76.7955 26.4677 75.7203 28.8926 76.6398 31.9281C76.9612 33.0009 77.4753 33.9724 78.1848 34.8376C78.8942 35.7052 79.7421 36.3998 80.7308 36.9263C81.1535 37.1513 81.591 37.3416 82.0434 37.4924L82.3029 38.6097C82.3944 38.9953 82.5328 39.3636 82.7182 39.7122C82.9036 40.0607 83.131 40.3821 83.4005 40.6713C83.6699 40.9605 83.9715 41.2101 84.3077 41.4203C84.6414 41.6304 84.9973 41.7935 85.3755 41.9122C85.3755 43.4052 85.1259 48.04 82.5328 51.6737C80.4268 54.6252 76.9216 55.782 73.8218 56.1825C73.7699 56.1825 73.7205 56.1899 73.6711 56.2023C72.5266 56.3382 71.3771 56.3926 70.2227 56.3654C70.109 56.096 69.9706 55.8438 69.8001 55.6041C69.632 55.3668 69.4416 55.1468 69.2266 54.9515C69.0115 54.7537 68.7767 54.5807 68.5246 54.4324C68.2724 54.2865 68.0079 54.1679 67.7311 54.0789C67.4542 53.9874 67.1699 53.9281 66.8783 53.8984C66.5891 53.8713 66.2998 53.8737 66.0081 53.9059C65.7189 53.9405 65.4371 54.0047 65.1603 54.0987C64.8834 54.1951 64.6214 54.3162 64.3717 54.4695C63.8477 53.7847 63.2891 53.1297 62.6933 52.5068C63.2718 52.3436 63.8353 52.1607 64.3717 51.9555C68.2848 50.4625 70.7493 47.9164 71.827 44.2333C72.2398 44.1789 72.6452 44.0874 73.0407 43.9564C73.4362 43.8254 73.8169 43.6598 74.1803 43.4571C74.5461 43.2544 74.8872 43.0196 75.2086 42.7526C75.5275 42.4857 75.8191 42.1915 76.0836 41.8677C76.3481 41.5463 76.5805 41.2003 76.7807 40.8344C76.9809 40.4686 77.1441 40.0854 77.2726 39.6875C77.3987 39.2919 77.4877 38.8866 77.5396 38.4713C77.589 38.056 77.6014 37.6407 77.5742 37.2254C77.547 36.8077 77.4803 36.3973 77.3764 35.9944C77.2726 35.5915 77.1293 35.2009 76.9513 34.8227C76.7733 34.4445 76.5607 34.0886 76.316 33.7524C76.0688 33.4138 75.7944 33.1023 75.4904 32.818C75.1863 32.5338 74.8576 32.2792 74.5041 32.0567C74.1531 31.8317 73.7823 31.6439 73.3942 31.4931C73.0061 31.3398 72.6081 31.2236 72.1978 31.147C71.7875 31.0679 71.3747 31.0308 70.9594 31.0308H70.8976C69.501 27.4515 67.3924 24.3616 64.5646 21.7637C64.7079 21.4967 64.8043 21.2149 64.8538 20.9158C64.9057 20.6192 64.9082 20.3201 64.8612 20.021C64.8142 19.7219 64.7203 19.4401 64.5819 19.1706C64.4434 18.9012 64.2655 18.6639 64.0479 18.4538L71.1077 6.39583C71.2165 6.40819 71.3252 6.41313 71.434 6.41313C71.6639 6.4156 71.8913 6.39089 72.1162 6.34392C72.3412 6.29448 72.5587 6.22527 72.7688 6.12886C72.9789 6.03493 73.1767 5.91875 73.3596 5.7828C73.545 5.64437 73.7131 5.48864 73.8639 5.31561C74.0147 5.14257 74.1457 4.95471 74.2569 4.75448C74.3681 4.55179 74.4571 4.34168 74.5214 4.12168C74.5881 3.8992 74.6302 3.67426 74.645 3.44437C74.6623 3.21449 74.6549 2.98707 74.6227 2.75966C74.5906 2.53224 74.5362 2.30977 74.4547 2.09224C74.3755 1.87719 74.2742 1.67202 74.1506 1.47921C74.027 1.28393 73.8836 1.10595 73.7205 0.942805C73.5598 0.779659 73.3818 0.636289 73.1866 0.510222C72.9938 0.386627 72.7911 0.282806 72.5735 0.203705C72.3585 0.122133 72.1385 0.0652786 71.9111 0.033144C71.6836 0.0010087 71.4538 -0.00887797 71.2239 0.0084249C70.9965 0.0232566 70.7715 0.0652784 70.549 0.129548C70.329 0.193818 70.1189 0.282806 69.9162 0.39157C69.716 0.502806 69.5281 0.633817 69.3526 0.784603C69.1796 0.935389 69.0239 1.10348 68.8855 1.2864C68.7495 1.47179 68.6333 1.66955 68.5369 1.87719C68.443 2.0873 68.3713 2.30483 68.3219 2.52977C68.2724 2.75471 68.2502 2.98213 68.2502 3.21201C68.2502 3.4419 68.2749 3.66932 68.3243 3.89426C68.3738 4.1192 68.4455 4.33673 68.5419 4.54684L60.2511 15.9374C59.9668 15.8212 59.6727 15.7545 59.3686 15.7347C59.0621 15.7174 58.763 15.747 58.4664 15.8261C58.1722 15.9077 57.8978 16.0313 57.6432 16.2019C57.3886 16.3724 57.1686 16.5776 56.9808 16.8223C53.3174 15.2255 49.4859 14.4295 45.4913 14.4394C33.7943 14.4394 23.8152 21.3682 20.095 31.0234C19.6921 31.0383 19.2916 31.0902 18.8961 31.1792C18.5031 31.2657 18.1174 31.3893 17.7467 31.5475C17.3734 31.7081 17.0199 31.8985 16.6813 32.1234C16.3451 32.3459 16.0312 32.598 15.7395 32.8798C15.4503 33.1616 15.1858 33.4681 14.9509 33.7969C14.7161 34.1257 14.5134 34.4742 14.3428 34.8425C14.1698 35.2084 14.0339 35.589 13.9325 35.9796C13.8312 36.3726 13.7644 36.7706 13.7372 37.1735C13.7076 37.5789 13.715 37.9818 13.7595 38.3848C13.8064 38.7877 13.8855 39.1807 14.0042 39.5688C14.1204 39.9569 14.2736 40.3301 14.459 40.691C14.6444 41.0495 14.8595 41.3906 15.1091 41.7095C15.3563 42.0308 15.6307 42.325 15.9323 42.5944C16.2339 42.8639 16.5577 43.1036 16.9037 43.3137C17.2498 43.5239 17.6107 43.7018 17.9889 43.8452C18.3671 43.9886 18.7552 44.0973 19.1532 44.1715C20.2235 47.8843 22.6929 50.4477 26.6208 51.9481C27.4365 52.2571 28.2646 52.5142 29.11 52.7218C28.5588 53.3126 28.0422 53.9281 27.5552 54.5733C27.2882 54.3928 27.0039 54.247 26.7024 54.1333C26.4008 54.022 26.0893 53.9454 25.768 53.9059C25.4491 53.8688 25.1302 53.8663 24.8089 53.9034C24.49 53.9429 24.1786 54.0171 23.8745 54.1283C23.5729 54.2371 23.2887 54.3829 23.0192 54.5634C22.7523 54.7414 22.5076 54.949 22.29 55.1863C22.07 55.4236 21.8822 55.6807 21.724 55.9625C21.5682 56.2443 21.4446 56.5409 21.3581 56.8499L13.1094 59.8236C13.0303 59.8335 12.9586 59.8607 12.8918 59.9027L1.28377 64.1049C1.08602 64.1766 0.90557 64.2755 0.742425 64.404C0.576807 64.5326 0.435908 64.6858 0.322201 64.8589C0.206021 65.0344 0.121976 65.2222 0.0675943 65.4249C0.0132121 65.6276 -0.0090346 65.8328 0.00332477 66.0404C0.0156841 66.2506 0.0626503 66.4508 0.13928 66.6461C0.218381 66.8389 0.324672 67.0168 0.460627 67.175C0.59411 67.3357 0.752312 67.4692 0.930289 67.578C1.11074 67.6867 1.30108 67.7634 1.50624 67.8079L15.9545 71.1548C16.0905 71.5553 16.2808 71.9285 16.5206 72.2771C16.7628 72.6231 17.0471 72.9321 17.3759 73.1991C17.7022 73.466 18.0606 73.6836 18.4487 73.8517C18.8368 74.0198 19.2422 74.131 19.6624 74.1829L20.9379 74.346C21.2864 75.058 21.724 75.7081 22.2529 76.2989C23.0464 77.1863 23.9858 77.8735 25.0759 78.3555C27.7752 82.4934 32.7487 84.9209 40.1817 85.7069C40.6291 90.8089 43.5534 94.6256 47.056 94.6256C50.6205 94.6256 53.5942 90.6186 53.9527 85.4276C57.3466 84.8887 60.1398 83.9618 62.3893 82.622C66.9944 79.8831 69.3304 75.3645 69.3304 69.1897C69.3329 66.6164 68.9374 64.1074 68.1463 61.6602C68.8484 61.3389 69.4169 60.8569 69.8495 60.2166C70.1832 60.2265 70.5194 60.2364 70.8481 60.2364C75.5448 60.2364 81.9272 59.1339 85.6647 53.8984C89.3429 48.747 89.2589 42.3349 89.2193 41.3313C89.605 41.0742 89.9411 40.7677 90.2303 40.4093C90.5196 40.0508 90.7495 39.6578 90.92 39.2277C91.0881 38.8 91.1919 38.3551 91.2241 37.8953C91.2587 37.4355 91.2241 36.9807 91.1202 36.5308L90.8261 35.285C91.3724 34.709 91.8297 34.0713 92.2005 33.3717C92.7196 32.3929 93.0285 31.3522 93.1274 30.2497C93.2263 29.1472 93.1076 28.067 92.769 27.014ZM87.1405 48.4627C86.6238 48.1883 86.0775 48.0227 85.4967 47.9634C85.771 47.0908 85.9811 46.2034 86.1344 45.3012C86.7326 45.1751 87.2987 45.2641 87.8326 45.5706C87.667 46.5495 87.4371 47.5135 87.1405 48.4627ZM85.6202 51.9679C85.2074 51.56 84.7304 51.2461 84.189 51.0286C84.5499 50.3809 84.8638 49.711 85.1283 49.0214C85.7216 49.0362 86.2704 49.1944 86.782 49.496C86.4582 50.3488 86.0726 51.1744 85.6202 51.9679ZM81.8654 56.1775C80.9731 56.8029 80.0189 57.3171 79.0079 57.7225C78.8719 57.1515 78.6643 56.6101 78.3825 56.096C79.265 55.74 80.098 55.2901 80.8791 54.7438C81.3167 55.1492 81.6454 55.6263 81.8679 56.1775H81.8654ZM77.3517 56.4816C77.6533 56.9883 77.8659 57.5297 77.9845 58.1081C76.9538 58.4467 75.9032 58.6989 74.8329 58.8645C74.823 58.2787 74.729 57.7052 74.5511 57.1465C75.5027 56.9982 76.4371 56.7782 77.3542 56.4816H77.3517ZM76.4915 37.6382C76.4915 37.9546 76.4643 38.2686 76.4124 38.58C76.3605 38.8915 76.2814 39.1955 76.1751 39.4946C76.0713 39.7937 75.9427 40.0805 75.787 40.3573C75.6338 40.6342 75.4558 40.8937 75.258 41.1409C75.0603 41.3857 74.8403 41.6131 74.603 41.8207C74.3657 42.0308 74.1135 42.2162 73.8441 42.3818C73.5747 42.5474 73.2929 42.6883 72.9987 42.8045C72.7045 42.9207 72.403 43.0122 72.094 43.0789C72.3338 41.8528 72.4524 40.6169 72.4425 39.3686C72.445 36.8843 72.0544 34.4618 71.2758 32.1012C71.6243 32.1234 71.9679 32.1778 72.3066 32.2618C72.6477 32.3484 72.974 32.467 73.2904 32.6153C73.6093 32.7636 73.9084 32.9392 74.1926 33.1443C74.4769 33.3495 74.7389 33.5794 74.9787 33.8365C75.2185 34.0911 75.4335 34.3654 75.6214 34.6596C75.8093 34.9562 75.9675 35.2652 76.0985 35.5915C76.227 35.9178 76.3259 36.2515 76.3926 36.5951C76.4569 36.9387 76.4915 37.2872 76.4915 37.6382ZM63.1729 17.816L61.1756 16.4985L69.187 5.49358C69.4367 5.74325 69.721 5.94594 70.0398 6.0992L63.1729 17.816ZM71.434 1.10348C71.7158 1.10348 71.9877 1.15786 72.2472 1.26662C72.5068 1.37292 72.7367 1.52618 72.9344 1.7264C73.1322 1.92415 73.2854 2.15404 73.3942 2.41606C73.503 2.67561 73.5549 2.94505 73.5549 3.22685C73.5549 3.50864 73.503 3.78055 73.3942 4.0401C73.2854 4.29965 73.1322 4.52954 72.9344 4.72976C72.7367 4.92752 72.5068 5.08078 72.2472 5.18954C71.9877 5.2983 71.7158 5.35021 71.434 5.35021C71.1547 5.35021 70.8827 5.2983 70.6232 5.18954C70.3636 5.08078 70.1338 4.92752 69.936 4.72976C69.7358 4.52954 69.5825 4.29965 69.4762 4.0401C69.3675 3.78055 69.3131 3.50864 69.3131 3.22685C69.3131 2.94505 69.3675 2.67561 69.4762 2.41606C69.5825 2.15404 69.7358 1.92415 69.936 1.7264C70.1338 1.52618 70.3636 1.37292 70.6232 1.26662C70.8827 1.15786 71.1547 1.10348 71.434 1.10348ZM60.1102 17.0868L63.0616 19.0297C63.2198 19.1336 63.3558 19.2621 63.472 19.4104C63.5882 19.5612 63.6771 19.7268 63.7365 19.9073C63.7983 20.0877 63.8279 20.2706 63.8255 20.461C63.823 20.6513 63.7909 20.8367 63.7291 21.0147C61.9789 19.5291 60.0706 18.2857 58.0066 17.2821C58.145 17.1511 58.3032 17.0448 58.4787 16.9682C58.6518 16.8891 58.8347 16.8396 59.025 16.8223C59.2154 16.805 59.4032 16.8174 59.5911 16.8643C59.7765 16.9088 59.9495 16.983 60.1102 17.0868ZM14.7977 37.6382C14.7977 37.2996 14.8298 36.9659 14.8916 36.6347C14.9509 36.3034 15.0424 35.9796 15.1611 35.6657C15.2822 35.3493 15.4305 35.0477 15.6035 34.7609C15.779 34.4717 15.9768 34.2023 16.2017 33.9502C16.4267 33.698 16.6689 33.4681 16.9359 33.2605C17.2004 33.0529 17.4822 32.8724 17.7813 32.7167C18.0804 32.561 18.3894 32.4324 18.7107 32.3335C19.0345 32.2347 19.3608 32.1654 19.697 32.1259C18.9233 34.4767 18.5377 36.8893 18.5401 39.3636C18.5303 40.5848 18.6415 41.7935 18.8739 42.9924C18.288 42.8317 17.7442 42.5796 17.2399 42.2385C16.7381 41.8973 16.3031 41.487 15.9348 41.0025C15.5664 40.518 15.2871 39.989 15.0918 39.4131C14.899 38.8371 14.8002 38.2463 14.8002 37.6382H14.7977ZM20.1271 43.6994C20.1296 43.5955 20.1049 43.4991 20.053 43.4101C19.744 42.0753 19.5981 40.7257 19.613 39.3562C19.613 26.2032 31.221 15.4999 45.4889 15.4999C59.7567 15.4999 71.3648 26.2032 71.3648 39.3562C71.3648 51.9135 61.1187 52.8528 45.4889 52.8528C31.8959 52.8602 22.3765 52.1508 20.1271 43.6994ZM25.281 54.9416C25.4763 54.9416 25.6716 54.9614 25.8669 54.9984C26.0597 55.038 26.2475 55.0948 26.4305 55.169C26.6134 55.2456 26.7864 55.3371 26.9496 55.4483C27.1152 55.5571 27.266 55.6807 27.4044 55.8216C27.5453 55.96 27.6689 56.1133 27.7801 56.2764C27.8889 56.442 27.9804 56.6151 28.057 56.798C28.1336 56.9809 28.1905 57.1688 28.2275 57.3616C28.2671 57.5569 28.2869 57.7521 28.2869 57.9499C28.2869 58.1476 28.2671 58.3429 28.2275 58.5357C28.1905 58.731 28.1336 58.9189 28.057 59.1018C27.9804 59.2847 27.8889 59.4578 27.7777 59.6209C27.6689 59.7865 27.5453 59.9373 27.4044 60.0782C27.266 60.2166 27.1127 60.3427 26.9496 60.4515C26.784 60.5602 26.6109 60.6542 26.428 60.7283C26.2475 60.8049 26.0597 60.8618 25.8644 60.8989C25.6716 60.9384 25.4763 60.9582 25.2786 60.9582C25.0808 60.9582 24.8855 60.9384 24.6927 60.8989C24.4999 60.8593 24.312 60.8025 24.1291 60.7258C23.9462 60.6517 23.7732 60.5578 23.61 60.449C23.4444 60.3378 23.2936 60.2142 23.1552 60.0733C23.0143 59.9324 22.8907 59.7816 22.7819 59.616C22.6732 59.4528 22.5792 59.2773 22.5051 59.0969C22.4285 58.9139 22.3716 58.7236 22.3345 58.5308C22.2974 58.338 22.2777 58.1402 22.2777 57.9425C22.2777 57.7472 22.2974 57.5519 22.337 57.3566C22.3765 57.1638 22.4334 56.976 22.51 56.7955C22.5842 56.6126 22.6781 56.4396 22.7869 56.2764C22.8981 56.1133 23.0217 55.96 23.1601 55.8216C23.301 55.6832 23.4518 55.5571 23.615 55.4483C23.7806 55.3396 23.9511 55.2456 24.1341 55.1715C24.317 55.0948 24.5049 55.038 24.6977 55.0009C24.8905 54.9614 25.0857 54.9416 25.281 54.9416ZM21.944 65.3285L20.8019 65.1827C20.3718 65.1308 19.9442 65.1382 19.5165 65.2074C19.0914 65.2791 18.6835 65.4052 18.293 65.593C17.9024 65.7784 17.5464 66.0157 17.2251 66.3049C16.9037 66.5941 16.6269 66.9204 16.3995 67.2887L8.75387 65.5164L22.2159 60.6467C22.6583 61.1535 23.1923 61.5267 23.8201 61.769C23.5804 62.5229 23.3727 63.2942 23.2071 64.0679C22.7424 64.4436 22.3222 64.8638 21.9464 65.3285H21.944ZM13.4777 68.5939C13.3566 68.9153 13.1464 69.1625 12.8498 69.3355L9.8069 68.6285C10.2593 68.2034 10.546 67.6843 10.6671 67.0737L13.5073 67.7288C13.5889 68.0204 13.579 68.3072 13.4777 68.5939ZM5.6986 67.6744L5.795 67.6348C6.45005 67.3728 6.92219 66.9155 7.20399 66.2654L9.61409 66.824C9.55724 67.1503 9.42129 67.4395 9.2087 67.6917C8.99365 67.9438 8.73162 68.1243 8.42016 68.233C8.38309 68.2429 8.34848 68.2602 8.31387 68.28L5.6986 67.6744ZM8.75881 62.5452C8.91454 63.1063 9.15926 63.6254 9.49297 64.1L7.47095 64.8317C6.73432 64.6216 6.09163 64.2458 5.54287 63.7094L8.75881 62.5452ZM17.5267 59.3712C17.6676 59.9324 17.8999 60.4539 18.2237 60.936L14.2984 62.3598C13.8954 61.9025 13.6952 61.3685 13.7002 60.758L17.5267 59.3712ZM21.6053 59.7124L19.2768 60.5553C18.9159 60.098 18.6736 59.5814 18.5476 59.0103L21.2049 58.0463C21.2197 58.6297 21.3507 59.1858 21.6053 59.7124ZM13.2305 62.7454L10.5534 63.7094C10.1802 63.2521 9.92308 62.738 9.78218 62.167L12.6447 61.1288C12.7015 61.7196 12.8968 62.2584 13.2305 62.7454ZM1.08355 65.9762C1.07366 65.7883 1.12063 65.6153 1.22445 65.4571C1.32827 65.2989 1.46916 65.1876 1.64714 65.1209L4.44287 64.1074C4.95702 64.713 5.57253 65.1876 6.28444 65.5312C6.27949 65.5584 6.27208 65.5856 6.26961 65.6128C6.22511 66.0231 5.87163 66.4285 5.36983 66.6411C4.70736 66.9056 4.02017 67.0663 3.30826 67.1207L1.74355 66.7598C1.56063 66.7153 1.40984 66.6213 1.28872 66.4755C1.16759 66.3321 1.09838 66.164 1.08602 65.9762H1.08355ZM14.1179 69.6247C14.2736 69.422 14.3972 69.202 14.4837 68.9647C14.5999 68.6483 14.6494 68.3245 14.6321 67.9883L15.9199 68.2874C15.737 68.8411 15.6678 69.4096 15.7098 69.993L14.1179 69.6247ZM19.7934 73.1126C19.5685 73.0829 19.3485 73.0335 19.1334 72.9618C18.9183 72.8901 18.7132 72.7962 18.5154 72.6849C18.3177 72.5712 18.1348 72.4402 17.9617 72.2919C17.7912 72.1411 17.6354 71.978 17.497 71.7975C17.3586 71.6171 17.2375 71.4267 17.1361 71.224C17.0348 71.0189 16.9557 70.8087 16.8963 70.5887C16.837 70.3687 16.7975 70.1463 16.7826 69.9189C16.7678 69.6939 16.7727 69.4665 16.8024 69.2416C16.8296 69.0166 16.8815 68.7966 16.9532 68.5791C17.0249 68.364 17.1163 68.1589 17.23 67.9611C17.3437 67.7634 17.4723 67.578 17.6231 67.4074C17.7714 67.2368 17.9345 67.0811 18.115 66.9427C18.2954 66.8018 18.4858 66.6831 18.6885 66.5818C18.8912 66.4804 19.1037 66.3989 19.3213 66.3395C19.5413 66.2802 19.7637 66.2407 19.9912 66.2258C20.2161 66.211 20.4435 66.2159 20.6685 66.2456L21.2469 66.3198C20.5547 67.484 20.1691 68.7422 20.09 70.0919C20.0258 71.1474 20.1543 72.1757 20.4756 73.1818L19.7934 73.1126ZM23.0489 75.577C22.5595 75.0332 22.159 74.4301 21.85 73.7676C21.5386 73.1051 21.3309 72.4105 21.2271 71.6863C21.1233 70.9595 21.1258 70.2353 21.237 69.5135C21.3482 68.7892 21.5633 68.0971 21.8797 67.4371C22.1961 66.7771 22.6015 66.1764 23.0983 65.6375C23.5927 65.0986 24.1538 64.6438 24.7842 64.273C25.4145 63.8998 26.0869 63.6279 26.7963 63.4573C27.5082 63.2867 28.23 63.2225 28.9592 63.2645C32.3803 63.4746 33.3197 66.1319 33.5594 67.9586H31.5844C31.3421 66.384 30.4399 65.5708 28.8282 65.4719C28.492 65.4521 28.1559 65.4645 27.8222 65.5115C27.4884 65.5584 27.1622 65.6375 26.8433 65.7488C26.5244 65.86 26.2204 66.0009 25.9287 66.1715C25.6395 66.342 25.3675 66.5398 25.1154 66.7647C24.8633 66.9872 24.6359 67.2344 24.4307 67.5038C24.228 67.7732 24.0525 68.0575 23.9042 68.3616C23.7559 68.6656 23.6397 68.982 23.5556 69.3083C23.4691 69.6346 23.4147 69.9658 23.395 70.302C23.3752 70.6407 23.3876 70.9744 23.432 71.3105C23.4765 71.6443 23.5556 71.9705 23.6644 72.2919C23.7732 72.6108 23.9141 72.9148 24.0822 73.2065C24.2527 73.5007 24.448 73.7726 24.6705 74.0247C24.8954 74.2793 25.1401 74.5067 25.4071 74.7119C25.6765 74.9171 25.9608 75.095 26.2624 75.2433C26.5664 75.3917 26.8804 75.5103 27.2066 75.5968C27.5305 75.6858 27.8617 75.7402 28.2004 75.7624C28.3042 75.7624 28.4006 75.7624 28.497 75.7624C30.5907 75.7624 31.1617 74.304 31.3916 72.9321H33.5743C33.1887 74.922 31.9601 78.133 28.0595 77.9501C27.1004 77.9081 26.1857 77.6831 25.3181 77.2703C24.448 76.86 23.6941 76.2939 23.0538 75.577H23.0489ZM53.5151 65.551C52.4819 65.551 51.5426 65.1926 51.0581 64.6018C51.0383 64.582 51.021 64.5598 51.0062 64.5375C50.9518 64.4634 50.885 64.409 50.8035 64.3694C50.7219 64.3324 50.6354 64.315 50.5464 64.32C50.4549 64.3225 50.3709 64.3497 50.2942 64.3941C50.2176 64.4411 50.1558 64.5029 50.1089 64.582C50.094 64.6117 50.0767 64.6389 50.0569 64.6661C49.6145 65.284 48.6307 65.682 47.5504 65.682C46.4702 65.682 45.5037 65.2964 45.0563 64.6883L45.0118 64.624C44.908 64.4634 44.7597 64.3793 44.5693 64.3768H44.5495C44.3641 64.3768 44.2183 64.4535 44.112 64.6043L44.0601 64.6784C43.6152 65.2865 42.6338 65.682 41.5536 65.682C40.0779 65.682 38.832 64.933 38.832 64.0456C38.832 63.5685 39.2176 63.0939 39.8603 62.7775C40.0606 62.6688 40.1619 62.5007 40.1644 62.2733C40.1644 60.5553 43.274 57.9079 47.4046 57.9079C51.4808 57.9079 54.4594 60.4366 54.6423 62.1076C54.6646 62.3252 54.7783 62.471 54.9785 62.5501C55.7497 62.8566 56.2268 63.3807 56.2268 63.9171C56.2367 64.802 54.9884 65.551 53.5151 65.551ZM41.5585 66.7598C42.7475 66.7598 43.8376 66.3741 44.5495 65.7339C45.259 66.3766 46.354 66.7598 47.543 66.7598C48.7716 66.7598 49.8938 66.3544 50.5983 65.6721C51.3102 66.2777 52.3583 66.6362 53.5102 66.6362C53.8118 66.6362 54.1109 66.6114 54.41 66.5595L53.7648 67.9685H40.9628L40.3522 66.6312C40.7502 66.7202 41.1556 66.7622 41.5635 66.7598H41.5585ZM66.4531 69.0389V71.8643H26.2006V69.0389H66.4531ZM25.6642 72.9395H30.2916C30.032 74.3114 29.4882 74.7613 28.2646 74.6773C27.9977 74.6624 27.7356 74.618 27.4761 74.5512C27.219 74.482 26.9693 74.3881 26.7296 74.2719C26.4898 74.1532 26.2624 74.0148 26.0498 73.8517C25.8372 73.691 25.6419 73.5081 25.4664 73.3078C25.2884 73.1076 25.1327 72.8926 24.9992 72.6602C24.8633 72.4303 24.752 72.1881 24.6655 71.9359C24.579 71.6813 24.5172 71.4218 24.4801 71.1573C24.4455 70.8928 24.4356 70.6258 24.4505 70.3589C24.4974 69.6123 24.7323 68.9301 25.1574 68.3146C25.1352 68.3714 25.1253 68.4308 25.1228 68.4901V72.3932C25.1228 72.544 25.1747 72.6726 25.281 72.7813C25.3849 72.8876 25.5134 72.9395 25.6642 72.9395ZM25.3478 68.0649C25.7606 67.5483 26.2673 67.1577 26.8705 66.8908C27.4736 66.6238 28.1039 66.5076 28.7615 66.5472C29.8071 66.6114 30.3039 67.007 30.4968 67.9586H25.6765C25.5554 67.9562 25.4442 67.9908 25.3478 68.0649ZM47.056 93.5453C44.2084 93.5453 41.7242 90.1835 41.2718 85.8083C42.7525 85.9294 44.3271 85.9887 45.9956 85.9887C48.292 86.0011 50.5785 85.8676 52.8576 85.5858C52.4745 90.097 50.0001 93.5453 47.056 93.5453ZM68.2502 69.1897C68.2502 79.9152 61.1805 84.9134 45.9981 84.9134C36.5208 84.9134 30.2298 82.9433 26.826 78.9042C27.2165 78.9784 27.6096 79.0254 28.0075 79.0451C28.1287 79.0451 28.2473 79.0451 28.366 79.0451C31.6561 79.0451 33.9327 76.8822 34.6446 73.0607C34.6496 73.0186 34.6496 72.9791 34.6446 72.9371H66.9944C67.1428 72.9371 67.2713 72.8851 67.3751 72.7789C67.4814 72.675 67.5333 72.5465 67.5333 72.3982V68.4975C67.5333 68.3492 67.4814 68.2231 67.3751 68.1168C67.2713 68.0106 67.1428 67.9586 66.9944 67.9586H54.9612L55.8214 66.0899C56.7385 65.5955 57.3243 64.8144 57.3243 63.9171C57.3243 63.0198 56.7014 62.1694 55.6805 61.6726C55.1515 59.3243 51.6662 56.8301 47.4244 56.8301C43.0219 56.8301 39.4376 59.5492 39.1336 61.9618C38.2808 62.4685 37.7839 63.2324 37.7839 64.0456C37.7839 64.8193 38.2066 65.4917 38.8938 65.9762L39.801 67.9562H34.6446C34.2417 64.4831 32.2098 62.3845 29.0284 62.1917C27.4341 62.0903 25.9336 62.4191 24.5271 63.1804C24.6309 62.7924 24.7446 62.4067 24.8682 62.0211C25.0042 62.0335 25.1426 62.0434 25.281 62.0434C25.6741 62.0434 26.0572 61.989 26.4329 61.8802C26.8087 61.769 27.1622 61.6108 27.4909 61.3982C27.8197 61.1881 28.1138 60.9335 28.3709 60.6369C28.6255 60.3427 28.8356 60.0164 28.9988 59.658C29.1619 59.302 29.2707 58.9312 29.3251 58.5432C29.3819 58.1551 29.3819 57.767 29.3251 57.3789C29.2707 56.9908 29.1595 56.62 28.9963 56.2641C28.8332 55.9056 28.623 55.5818 28.366 55.2852C28.9741 54.4769 29.6316 53.7106 30.3386 52.9888C34.6273 53.8564 39.801 53.9553 45.4963 53.9553C51.5673 53.9553 57.0475 53.8539 61.4895 52.8207C62.2212 53.545 62.8985 54.3162 63.5239 55.1369C63.2273 55.4434 62.985 55.7894 62.7971 56.1751C62.6093 56.5582 62.4857 56.9636 62.4264 57.3863C62.3646 57.809 62.372 58.2317 62.4437 58.6519C62.5178 59.0746 62.6513 59.4751 62.8515 59.8533C63.0493 60.2315 63.3014 60.5701 63.6055 60.8692C63.912 61.1683 64.2556 61.413 64.6387 61.6034C65.0194 61.7937 65.4223 61.9222 65.845 61.9865C66.2677 62.0483 66.6879 62.0458 67.1106 61.9766C67.872 64.3175 68.2502 66.7227 68.2502 69.1897ZM66.458 60.9557C66.2603 60.9557 66.065 60.936 65.8722 60.8964C65.6794 60.8593 65.4915 60.8025 65.3086 60.7258C65.1257 60.6517 64.9527 60.5578 64.7895 60.449C64.6264 60.3402 64.4731 60.2142 64.3347 60.0757C64.1938 59.9348 64.0702 59.784 63.9614 59.6184C63.8502 59.4553 63.7587 59.2823 63.6821 59.0993C63.6079 58.9164 63.5511 58.7285 63.5115 58.5357C63.4744 58.3429 63.4547 58.1452 63.4547 57.9499C63.4547 57.7521 63.472 57.5569 63.5115 57.3616C63.5511 57.1688 63.6079 56.9809 63.6821 56.798C63.7562 56.6151 63.8502 56.442 63.9589 56.2789C64.0677 56.1133 64.1938 55.9625 64.3322 55.8216C64.4731 55.6832 64.6239 55.5571 64.787 55.4483C64.9502 55.3371 65.1232 55.2456 65.3061 55.169C65.4891 55.0948 65.6769 55.0355 65.8697 54.9984C66.0625 54.9589 66.2578 54.9391 66.4556 54.9391C66.6533 54.9391 66.8486 54.9589 67.0414 54.996C67.2342 55.0355 67.4221 55.0924 67.605 55.1665C67.7879 55.2432 67.961 55.3346 68.1241 55.4459C68.2897 55.5546 68.4405 55.6782 68.5789 55.8191C68.7198 55.9575 68.8434 56.1083 68.9547 56.2739C69.0634 56.4371 69.1574 56.6101 69.2315 56.793C69.3081 56.976 69.365 57.1638 69.4045 57.3566C69.4416 57.5494 69.4614 57.7472 69.4614 57.9425C69.4614 58.1402 69.4441 58.338 69.4045 58.5308C69.3675 58.7261 69.3106 58.9139 69.234 59.0969C69.1598 59.2773 69.0659 59.4528 68.9571 59.616C68.8484 59.7816 68.7223 59.9324 68.5839 60.0733C68.4455 60.2117 68.2922 60.3378 68.129 60.4465C67.9634 60.5578 67.7904 60.6492 67.6075 60.7258C67.427 60.8025 67.2392 60.8593 67.0439 60.8964C66.8511 60.936 66.6558 60.9557 66.458 60.9557ZM70.3562 59.1562C70.4774 58.7632 70.5392 58.3602 70.5392 57.9499C70.5367 57.7769 70.5268 57.6038 70.5045 57.4308H70.774C71.6762 57.4333 72.576 57.3863 73.4733 57.2899C73.676 57.8436 73.7724 58.4146 73.7675 59.0029C72.8009 59.1092 71.8295 59.1611 70.8556 59.1587L70.3562 59.1562ZM82.743 55.4978C82.4933 54.9712 82.1596 54.5016 81.7418 54.0937C82.3672 53.5573 82.9185 52.9542 83.398 52.2843C83.4746 52.178 83.5463 52.0717 83.618 51.9629C84.1767 52.1557 84.6537 52.4771 85.0418 52.9245C84.9578 53.0456 84.8787 53.1668 84.7922 53.2879C84.2014 54.111 83.5167 54.8452 82.743 55.4978ZM87.9933 44.4459C87.4495 44.216 86.8834 44.1295 86.2926 44.1863C86.3964 43.3137 86.431 42.587 86.4384 42.0901C86.5274 42.0901 86.6164 42.1025 86.7029 42.1025C87.0515 42.1025 87.3926 42.063 87.7313 41.9839C87.8722 41.9492 88.013 41.9097 88.149 41.8627C88.149 42.7279 88.0971 43.5881 87.9933 44.4459ZM89.6371 39.3933C89.4566 39.6825 89.2366 39.9396 88.982 40.167C88.725 40.3919 88.4407 40.5749 88.1292 40.7158C87.8178 40.8567 87.4939 40.9481 87.1553 40.9926C86.8166 41.0371 86.478 41.0322 86.1418 40.9778C85.8032 40.9209 85.4818 40.8171 85.1753 40.6663C84.8713 40.5155 84.5919 40.3227 84.3423 40.0879C84.0951 39.8555 83.885 39.5886 83.7144 39.2944C83.5438 38.9978 83.4178 38.6839 83.3411 38.3502L83.2077 37.7791C84.3942 37.9917 85.5708 37.9497 86.7375 37.6605C87.9068 37.3688 88.9647 36.8547 89.9115 36.1131L90.0672 36.783C90.171 37.2279 90.1883 37.6778 90.1117 38.1302C90.0375 38.5825 89.8793 39.0027 89.6371 39.3933ZM91.2438 32.8675C90.9052 33.5176 90.48 34.1059 89.9659 34.6275C89.4542 35.1515 88.8757 35.5866 88.233 35.9376C87.5904 36.2886 86.9106 36.5382 86.1937 36.6841C85.4769 36.8324 84.7551 36.872 84.0259 36.8052C83.2967 36.736 82.5946 36.563 81.9173 36.2861C81.24 36.0068 80.6171 35.636 80.051 35.1738C79.4825 34.709 78.9955 34.1751 78.5877 33.5645C78.1823 32.9565 77.8708 32.3014 77.6582 31.5994C76.9414 29.2263 77.6755 27.3526 79.9003 25.9115L80.9187 27.6493C79.7075 28.4205 79.3317 29.5057 79.7717 30.9641C79.9324 31.4931 80.1722 31.985 80.4886 32.4374C80.805 32.8897 81.1856 33.2803 81.6281 33.6115C82.0731 33.9403 82.5551 34.1924 83.0791 34.3679C83.6032 34.5434 84.1396 34.6324 84.6933 34.6324C84.8935 34.6324 85.0937 34.62 85.2915 34.5978C85.4917 34.5731 85.687 34.5385 85.8823 34.494C86.0776 34.447 86.2679 34.3877 86.4557 34.3209C86.6436 34.2517 86.829 34.1726 87.007 34.0812C87.185 33.9922 87.358 33.8908 87.5261 33.7796C87.6942 33.6708 87.8549 33.5497 88.0081 33.4212C88.1614 33.2926 88.3047 33.1542 88.4432 33.0084C88.5791 32.8625 88.7077 32.7093 88.8288 32.5486C88.9474 32.3879 89.0562 32.2198 89.1575 32.0468C89.2564 31.8713 89.3454 31.6933 89.427 31.5104C89.5061 31.325 89.5728 31.1371 89.6297 30.9443C89.6865 30.7515 89.7335 30.5587 89.7681 30.361C89.8027 30.1632 89.825 29.963 89.8373 29.7628C89.8497 29.5625 89.8472 29.3623 89.8373 29.1621C89.825 28.9619 89.8002 28.7641 89.7656 28.5664C89.731 28.3686 89.6841 28.1733 89.6272 27.983C88.9993 25.8942 87.5483 25.7014 86.1987 25.9041L85.6301 23.8376C87.6596 23.6102 90.6432 23.9167 91.7357 27.3403C92.0299 28.2574 92.1337 29.1942 92.0497 30.1533C91.9632 31.1124 91.6937 32.0171 91.2438 32.8675Z" fill="#231F20"/>
<path d="M50.2448 59.831C50.1657 59.7049 50.0545 59.6283 49.9086 59.5937C49.7628 59.5616 49.6268 59.5863 49.5033 59.6654C49.3772 59.747 49.2981 59.8582 49.2659 60.004C49.2338 60.1499 49.2561 60.2858 49.3352 60.4119L50.1064 61.6429C50.2127 61.811 50.3659 61.8975 50.5637 61.895C50.7763 61.895 50.932 61.8036 51.0358 61.6182C51.1372 61.4303 51.1322 61.2474 51.0185 61.0694L50.2448 59.831Z" fill="#231F20"/>
<path d="M47.3156 59.3885C47.1673 59.3885 47.0387 59.4404 46.9349 59.5467C46.8286 59.6505 46.7767 59.7791 46.7767 59.9274V61.3562C46.7718 61.4303 46.7841 61.5045 46.8088 61.5737C46.8336 61.6429 46.8731 61.7047 46.9226 61.7591C46.9745 61.8135 47.0338 61.8555 47.103 61.8851C47.1697 61.9148 47.2414 61.9296 47.3156 61.9296C47.3897 61.9296 47.4614 61.9148 47.5306 61.8851C47.5974 61.8555 47.6592 61.8135 47.7086 61.7591C47.7605 61.7047 47.7976 61.6429 47.8248 61.5737C47.8495 61.5045 47.8594 61.4303 47.8545 61.3562V59.9274C47.8545 59.7791 47.8026 59.6505 47.6963 59.5467C47.5924 59.4404 47.4639 59.3885 47.3156 59.3885Z" fill="#231F20"/>
<path d="M45.6298 59.3811C45.5087 59.2921 45.3752 59.2625 45.2294 59.2872C45.0811 59.3094 44.9649 59.3836 44.8784 59.5047C44.5348 59.9793 44.1566 60.4243 43.7364 60.8346C43.6375 60.9384 43.5905 61.0645 43.593 61.2078C43.593 61.3537 43.6449 61.4773 43.7462 61.5786C43.8476 61.6825 43.9687 61.7368 44.1121 61.7418C44.2579 61.7467 44.3815 61.7022 44.4903 61.6058C44.9525 61.151 45.3752 60.6591 45.7534 60.1326C45.84 60.0114 45.8721 59.878 45.8474 59.7321C45.8226 59.5838 45.751 59.4676 45.6298 59.3811Z" fill="#231F20"/>
<path d="M107 59.4571C108.091 57.8605 109.257 57.0434 110.5 57.002C111.568 57.0735 112.583 57.6346 113.545 58.6889C114.544 59.845 115.628 60.4211 116.802 60.4211C117.711 60.4211 118.347 60.2328 118.71 59.8487C119.082 59.4684 119.275 58.9714 119.286 58.3576C119.275 57.7852 119.066 57.3446 118.665 57.0321C118.271 56.712 117.392 56.3317 116.029 55.8874C113.745 55.1267 111.852 54.2569 110.348 53.2816C108.841 52.3101 108.076 50.8943 108.045 49.0341C108.076 47.1174 109.019 45.517 110.878 44.2292C112.745 42.9452 114.726 42.3013 116.817 42.3013C119.006 42.3239 120.907 42.7155 122.513 43.4761C124.126 44.2405 124.937 45.1781 124.937 46.2928C124.937 47.3998 123.543 48.1228 120.756 48.4617C119.968 47.8705 119.294 47.3433 118.741 46.8802C118.184 46.4095 117.487 46.1723 116.65 46.1723C115.984 46.2024 115.427 46.4245 114.984 46.835C114.548 47.2379 114.332 47.7613 114.332 48.4015C114.332 48.7554 114.624 49.1094 115.211 49.4709C115.794 49.8248 116.593 50.1713 117.605 50.5102C120.218 51.203 122.259 52.1294 123.725 53.2816C125.187 54.4263 125.922 55.9853 125.922 57.9509C125.922 59.909 124.986 61.5733 123.119 62.9365C121.259 64.3034 119.154 64.9887 116.802 65C113.215 64.9887 109.947 63.1436 107 59.4571Z" fill="#FCF8E8"/>
<path d="M137.598 49.983L135.764 54.095H139.431L137.598 49.983ZM140.052 57.8605L135.189 58.1317L132.871 64.1114C131.375 64.5557 130.254 64.7741 129.508 64.7741C128.296 64.7741 127.213 64.1791 126.266 62.9817L133.977 43.2201C136.42 42.5574 138.029 42.226 138.809 42.226C139.889 42.226 140.934 42.6402 141.945 43.4611L149.081 63.9607C146.736 64.5444 145.195 64.8343 144.46 64.8343C143.256 64.8343 142.415 64.3298 141.93 63.3131L140.052 57.8605Z" fill="#FCF8E8"/>
<path d="M156.911 51.685L160.168 51.5043C160.702 51.4553 161.153 51.2256 161.516 50.8114C161.887 50.401 162.077 49.8474 162.077 49.1546C162.077 48.4128 161.789 47.9308 161.213 47.7086C160.637 47.4902 160.035 47.3735 159.41 47.3622H156.911V51.685ZM162.895 63.9005L158.092 56.279L156.911 56.2037V63.9607C155.638 64.6159 154.654 64.9435 153.957 64.9548C152.389 64.9548 151.381 64.262 150.927 62.8762V42.5121H159.365C161.978 42.5234 164.137 43.1448 165.834 44.3799C167.538 45.615 168.394 47.2191 168.394 49.1847C168.394 50.48 167.883 51.8658 166.864 53.3419C165.853 54.818 165.201 55.5711 164.91 55.6012L170.121 63.7047C167.818 64.5406 166.262 64.9548 165.455 64.9548C164.516 64.9548 163.66 64.6046 162.895 63.9005Z" fill="#FCF8E8"/>
<path d="M181.997 49.983L180.164 54.095H183.83L181.997 49.983ZM184.452 57.8605L179.589 58.1317L177.271 64.1114C175.775 64.5557 174.654 64.7741 173.908 64.7741C172.696 64.7741 171.612 64.1791 170.666 62.9817L178.377 43.2201C180.819 42.5574 182.429 42.226 183.209 42.226C184.289 42.226 185.334 42.6402 186.345 43.4611L193.481 63.9607C191.136 64.5444 189.595 64.8343 188.86 64.8343C187.656 64.8343 186.815 64.3298 186.33 63.3131L184.452 57.8605Z" fill="#FCF8E8"/>
<path d="M194.917 62.7406L195.902 43.4008C197.213 42.4971 198.284 42.0452 199.114 42.0452C200.144 42.0452 201.163 42.433 202.174 43.205L208.113 51.9712V43.0393C210.143 42.3879 211.521 42.0414 212.248 42C213.642 42.1318 214.634 42.7531 215.233 43.8677V64.1716C213.597 64.6234 212.445 64.8569 211.779 64.8795C210.779 64.8795 209.847 64.5895 208.991 64.0059L202.447 54.3661L201.932 64.277C199.769 64.6799 198.417 64.8795 197.872 64.8795C196.235 64.8795 195.251 64.1678 194.917 62.7406Z" fill="#FCF8E8"/>
<path d="M216.773 42.9791C219.629 42.4783 221.394 42.226 222.06 42.226C222.848 42.226 223.746 42.5348 224.757 43.1448L227.408 47.1664L230.392 42.723C232.078 42.3917 233.241 42.226 233.877 42.226C235.157 42.226 236.278 42.9716 237.24 44.4552L230.877 53.9594V64.277C228.946 64.7176 227.654 64.9435 226.999 64.9548C225.673 64.9548 224.643 64.3072 223.909 63.0118V53.7787L216.773 42.9791Z" fill="#FCF8E8"/>
<path d="M248.267 49.983L246.434 54.095H250.1L248.267 49.983ZM250.721 57.8605L245.858 58.1317L243.54 64.1114C242.044 64.5557 240.923 64.7741 240.177 64.7741C238.965 64.7741 237.882 64.1791 236.935 62.9817L244.646 43.2201C247.089 42.5574 248.698 42.226 249.479 42.226C250.558 42.226 251.603 42.6402 252.614 43.4611L259.75 63.9607C257.405 64.5444 255.864 64.8343 255.129 64.8343C253.925 64.8343 253.084 64.3298 252.599 63.3131L250.721 57.8605Z" fill="#FCF8E8"/>
<path d="M268.655 51.7152L270.7 51.5947C271.435 51.557 271.931 51.2746 272.185 50.7512C272.435 50.2315 272.564 49.6366 272.564 48.9738C272.564 48.5446 272.397 48.1605 272.064 47.8291C271.731 47.4977 271.049 47.3283 270.019 47.317H268.655V51.7152ZM261.596 42.482H269.095C272.276 42.5536 274.685 43.1711 276.321 44.3347C277.965 45.4907 278.79 46.9781 278.79 48.7931C278.79 50.352 278.264 51.8921 277.215 53.4172C276.162 54.946 274.42 55.7594 271.988 55.8573L268.655 56.1284V64.3222C266.565 64.6762 265.22 64.8569 264.626 64.8795C262.936 64.8795 261.929 64.1867 261.596 62.8009V42.482Z" fill="#FCF8E8"/>
<path d="M293.817 53.628C293.817 51.9523 293.552 50.6306 293.029 49.6667C292.503 48.6951 291.594 48.2056 290.302 48.2056C288.886 48.2056 287.962 48.6048 287.53 49.3955C287.106 50.1788 286.894 51.5909 286.894 53.628C286.894 55.7894 287.14 57.2655 287.636 58.0563C288.14 58.8508 289.03 59.2462 290.302 59.2462C291.757 59.2462 292.704 58.8358 293.15 58.0111C293.594 57.1902 293.817 55.7292 293.817 53.628ZM279.849 53.372C279.849 50.5516 280.698 48.0173 282.394 45.7656C284.091 43.5062 286.757 42.3766 290.393 42.3766C293.897 42.3766 296.533 43.5213 298.301 45.8107C300.066 48.1002 300.952 50.6231 300.952 53.372C300.952 56.6179 300.187 59.3517 298.665 61.5809C297.15 63.8025 294.393 64.9096 290.393 64.9096C286.655 64.9096 283.962 63.7724 282.319 61.4905C280.671 59.201 279.849 56.4974 279.849 53.372Z" fill="#FCF8E8"/>
<path d="M303.541 62.7406L304.526 43.4008C305.836 42.4971 306.908 42.0452 307.737 42.0452C308.768 42.0452 309.786 42.433 310.798 43.205L316.736 51.9712V43.0393C318.766 42.3879 320.145 42.0414 320.872 42C322.266 42.1318 323.258 42.7531 323.856 43.8677V64.1716C322.22 64.6234 321.069 64.8569 320.402 64.8795C319.402 64.8795 318.471 64.5895 317.615 64.0059L311.07 54.3661L310.555 64.277C308.393 64.6799 307.041 64.8795 306.495 64.8795C304.859 64.8795 303.874 64.1678 303.541 62.7406Z" fill="#FCF8E8"/>
<path d="M336.986 64.8494C332.994 64.8494 330.199 63.7348 328.593 61.5056C326.995 59.2764 326.2 56.6329 326.2 53.5678C326.219 50.657 327.113 48.0475 328.881 45.7354C330.646 43.4159 333.354 42.2561 337.001 42.2561C340.312 42.2561 343.091 43.6267 345.334 46.3681C345.947 46.8613 346.258 47.2417 346.258 47.5128C346.186 48.7893 344.337 49.4257 340.713 49.4257C339.804 48.5445 339.16 48.0851 338.789 48.055C338.414 48.0174 337.819 47.9948 337.001 47.9948C335.85 47.9948 334.721 48.4165 333.623 49.26C332.521 50.0959 331.972 51.5306 331.972 53.5678C331.972 55.8685 332.464 57.4237 333.456 58.2371C334.456 59.0504 335.63 59.4571 336.986 59.4571C338.388 59.4571 339.293 59.122 339.698 58.4479C340.099 57.7777 340.304 57.1225 340.304 56.4898L336.729 56.8212C335.99 55.797 335.615 54.9158 335.608 54.1703C335.608 53.4285 336.062 52.8599 336.971 52.4682L346.682 51.7603L347 54.8481C347 57.4501 346.186 59.7696 344.561 61.8068C342.932 63.8364 340.41 64.8494 336.986 64.8494Z" fill="#FCF8E8"/>
<path d="M365.982 52.5147L368.005 52.3948C368.732 52.3573 369.223 52.0764 369.474 51.5557C369.721 51.0388 369.848 50.4469 369.848 49.7876C369.848 49.3606 369.683 48.9785 369.354 48.6489C369.024 48.3192 368.35 48.1507 367.331 48.1394H365.982V52.5147ZM359 43.3297H366.417C369.564 43.4008 371.946 44.0152 373.564 45.1726C375.19 46.3226 376.007 47.8023 376.007 49.6078C376.007 51.1586 375.486 52.6907 374.448 54.2078C373.407 55.7287 371.684 56.5378 369.279 56.6352L365.982 56.9049V65.056C363.915 65.4082 362.585 65.588 361.997 65.6104C360.326 65.6104 359.33 64.9212 359 63.5427V43.3297Z" fill="#FCF8E8"/>
<path d="M378.313 44.4684C380.111 43.8391 381.354 43.5244 382.044 43.5244C382.722 43.5244 383.737 43.7716 385.085 44.2586V52.0202L389.925 51.7205V44.4684C391.521 43.8391 392.667 43.5244 393.356 43.5244C394.004 43.5244 395.124 43.7417 396.713 44.1687V65.071C394.754 65.6891 393.424 66 392.727 66C391.128 66 390.195 65.2583 389.925 63.7674V56.77L385.085 57.0997V65.071C383.336 65.6891 382.066 66 381.279 66C379.781 66 378.792 65.2808 378.313 63.8423V44.4684Z" fill="#FCF8E8"/>
<path d="M413.469 54.4176C413.469 52.7507 413.207 51.4358 412.69 50.4769C412.169 49.5104 411.27 49.0235 409.993 49.0235C408.592 49.0235 407.678 49.4205 407.251 50.2072C406.831 50.9863 406.621 52.3911 406.621 54.4176C406.621 56.5678 406.865 58.0362 407.355 58.8228C407.854 59.6132 408.734 60.0065 409.993 60.0065C411.431 60.0065 412.367 59.5982 412.81 58.7779C413.248 57.9612 413.469 56.5078 413.469 54.4176ZM399.654 54.1629C399.654 51.3572 400.493 48.8362 402.171 46.5961C403.849 44.3485 406.486 43.2248 410.082 43.2248C413.547 43.2248 416.155 44.3635 417.904 46.641C419.65 48.9186 420.526 51.4283 420.526 54.1629C420.526 57.3919 419.769 60.1114 418.264 62.329C416.765 64.5391 414.038 65.6404 410.082 65.6404C406.385 65.6404 403.722 64.5091 402.096 62.2391C400.467 59.9616 399.654 57.272 399.654 54.1629Z" fill="#FCF8E8"/>
<path d="M423.491 44.6182C425.357 43.7117 426.582 43.2248 427.162 43.1648C427.762 43.1648 428.226 43.8541 428.556 45.2326V50.0573L434.234 44.1687C435.512 43.5619 436.591 43.2547 437.471 43.2547C438.688 43.5769 439.527 44.4459 439.988 45.8619L433.845 52.1551L442.161 63.1381C441.94 64.0371 441.475 64.5915 440.767 64.8013C440.056 65.0111 439.288 65.1422 438.46 65.1909C437.269 65.1909 436.257 64.8575 435.418 64.187L429.859 56.0808L428.72 57.1746L428.765 64.8612C428.125 65.3407 427.499 65.588 426.892 65.6104C426.113 65.6104 424.978 65.0336 423.491 63.8723V44.6182Z" fill="#FCF8E8"/>
<path d="M442.555 60.2163C443.634 58.628 444.788 57.8152 446.016 57.774C447.073 57.8451 448.077 58.4033 449.028 59.4521C450.017 60.6021 451.088 61.1753 452.25 61.1753C453.149 61.1753 453.778 60.988 454.138 60.6059C454.505 60.2275 454.696 59.7331 454.707 59.1225C454.696 58.5531 454.49 58.1148 454.093 57.8039C453.703 57.4855 452.834 57.1072 451.486 56.6652C449.227 55.9085 447.354 55.0432 445.867 54.073C444.376 53.1065 443.619 51.6981 443.589 49.8476C443.619 47.9409 444.552 46.3489 446.391 45.0678C448.238 43.7904 450.197 43.1498 452.265 43.1498C454.43 43.1723 456.31 43.5619 457.899 44.3186C459.494 45.079 460.296 46.0117 460.296 47.1205C460.296 48.2218 458.917 48.941 456.16 49.2782C455.381 48.6901 454.715 48.1656 454.168 47.7049C453.617 47.2367 452.928 47.0007 452.1 47.0007C451.441 47.0306 450.89 47.2516 450.452 47.6599C450.021 48.0608 449.807 48.5814 449.807 49.2182C449.807 49.5704 450.096 49.9225 450.676 50.2821C451.253 50.6342 452.044 50.9788 453.044 51.316C455.629 52.0052 457.648 52.9267 459.097 54.073C460.543 55.2117 461.27 56.7625 461.27 58.7179C461.27 60.6658 460.345 62.3215 458.498 63.6775C456.659 65.0373 454.576 65.7191 452.25 65.7303C448.702 65.7191 445.47 63.8836 442.555 60.2163Z" fill="#FCF8E8"/>
<path d="M472.818 50.7915L471.005 54.8821H474.631L472.818 50.7915ZM475.246 58.628L470.436 58.8977L468.143 64.8463C466.664 65.2883 465.555 65.5055 464.817 65.5055C463.618 65.5055 462.547 64.9137 461.61 63.7225L469.237 44.0638C471.653 43.4046 473.245 43.0749 474.017 43.0749C475.084 43.0749 476.118 43.487 477.118 44.3036L484.176 64.6964C481.857 65.277 480.333 65.5655 479.606 65.5655C478.415 65.5655 477.583 65.0635 477.104 64.0521L475.246 58.628Z" fill="#FCF8E8"/>
<path d="M485.567 43.8241C487.755 43.3147 489.126 43.0412 489.688 43C490.647 43 491.321 43.6668 491.71 44.9928L493.344 51.0612L495.082 44.1687C496.767 43.7117 497.921 43.4757 498.543 43.4645C499.27 43.5169 499.862 44.0901 500.311 45.1876L501.884 51.0013L503.622 43.8391C504.761 43.3222 505.66 43.0412 506.32 43C507.698 43 508.777 43.6668 509.556 44.9928L506.26 64.9961C504.061 65.3782 502.682 65.5655 502.124 65.5655C500.873 65.5655 499.85 65.0523 499.052 64.0222L497.629 57.684L495.846 64.9511C493.958 65.3632 492.658 65.5655 491.95 65.5655C490.71 65.5655 489.661 65.0036 488.804 63.8723L485.567 43.8241Z" fill="#FCF8E8"/>
<path d="M520.778 50.7915L518.965 54.8821H522.591L520.778 50.7915ZM523.205 58.628L518.396 58.8977L516.103 64.8463C514.623 65.2883 513.515 65.5055 512.777 65.5055C511.578 65.5055 510.507 64.9137 509.57 63.7225L517.197 44.0638C519.613 43.4046 521.205 43.0749 521.977 43.0749C523.044 43.0749 524.078 43.487 525.078 44.3036L532.136 64.6964C529.817 65.277 528.292 65.5655 527.566 65.5655C526.374 65.5655 525.543 65.0635 525.063 64.0521L523.205 58.628Z" fill="#FCF8E8"/>
<path d="M532.343 60.2163C533.422 58.628 534.576 57.8152 535.804 57.774C536.861 57.8451 537.865 58.4033 538.816 59.4521C539.805 60.6021 540.876 61.1753 542.038 61.1753C542.937 61.1753 543.566 60.988 543.926 60.6059C544.293 60.2275 544.484 59.7331 544.495 59.1225C544.484 58.5531 544.278 58.1148 543.881 57.8039C543.491 57.4855 542.622 57.1072 541.273 56.6652C539.015 55.9085 537.142 55.0432 535.655 54.073C534.164 53.1065 533.407 51.6981 533.377 49.8476C533.407 47.9409 534.34 46.3489 536.179 45.0678C538.026 43.7904 539.985 43.1498 542.053 43.1498C544.218 43.1723 546.098 43.5619 547.686 44.3186C549.282 45.079 550.084 46.0117 550.084 47.1205C550.084 48.2218 548.705 48.941 545.948 49.2782C545.169 48.6901 544.502 48.1656 543.956 47.7049C543.405 47.2367 542.716 47.0007 541.888 47.0007C541.228 47.0306 540.678 47.2516 540.24 47.6599C539.809 48.0608 539.595 48.5814 539.595 49.2182C539.595 49.5704 539.884 49.9225 540.464 50.2821C541.041 50.6342 541.832 50.9788 542.832 51.316C545.416 52.0052 547.435 52.9267 548.885 54.073C550.331 55.2117 551.058 56.7625 551.058 58.7179C551.058 60.6658 550.133 62.3215 548.286 63.6775C546.447 65.0373 544.364 65.7191 542.038 65.7303C538.49 65.7191 535.257 63.8836 532.343 60.2163Z" fill="#FCF8E8"/>
</svg>
