<svg width="331" height="32" viewBox="0 0 331 32" fill="none" xmlns="http://www.w3.org/2000/svg">
<path d="M0 24.1458C1.5 21.9375 3.10417 20.8073 4.8125 20.75C6.28125 20.8489 7.67708 21.625 9 23.0833C10.375 24.6823 11.8646 25.4792 13.4792 25.4792C14.7292 25.4792 15.6042 25.2187 16.1042 24.6875C16.6146 24.1614 16.8802 23.4739 16.8958 22.625C16.8802 21.8333 16.5938 21.2239 16.0417 20.7917C15.5 20.3489 14.2917 19.8229 12.4167 19.2083C9.27604 18.1562 6.67188 16.9531 4.60417 15.6042C2.53125 14.2604 1.47917 12.3021 1.4375 9.72916C1.47917 7.07811 2.77604 4.86457 5.33333 3.08332C7.90104 1.30728 10.625 0.416656 13.5 0.416656C16.5104 0.447907 19.125 0.989574 21.3333 2.04166C23.5521 3.09895 24.6667 4.39582 24.6667 5.93749C24.6667 7.46874 22.75 8.46874 18.9167 8.93749C17.8333 8.11978 16.9063 7.39062 16.1458 6.74999C15.3802 6.09895 14.4219 5.77082 13.2708 5.77082C12.3542 5.81249 11.5885 6.11978 10.9792 6.68749C10.3802 7.24478 10.0833 7.96874 10.0833 8.85416C10.0833 9.34374 10.4844 9.83332 11.2917 10.3333C12.0937 10.8229 13.1927 11.3021 14.5833 11.7708C18.1771 12.7292 20.9844 14.0104 23 15.6042C25.0104 17.1875 26.0208 19.3437 26.0208 22.0625C26.0208 24.7708 24.7344 27.0729 22.1667 28.9583C19.6094 30.8489 16.7135 31.7969 13.4792 31.8125C8.54688 31.7969 4.05208 29.2448 0 24.1458Z" fill="#FCF8E8"/>
<path d="M42.0776 11.0417L39.5568 16.7292H44.5984L42.0776 11.0417ZM45.4526 21.9375L38.7651 22.3125L35.5776 30.5833C33.5203 31.1979 31.9786 31.5 30.9526 31.5C29.2859 31.5 27.7963 30.6771 26.4943 29.0208L37.0984 1.6875C40.4578 0.770833 42.6713 0.3125 43.7443 0.3125C45.2286 0.3125 46.6661 0.885416 48.0568 2.02083L57.8693 30.375C54.6453 31.1823 52.5255 31.5833 51.5151 31.5833C49.8588 31.5833 48.7026 30.8854 48.0359 29.4792L45.4526 21.9375Z" fill="#FCF8E8"/>
<path d="M68.6369 13.3958L73.1161 13.1458C73.8505 13.0781 74.4703 12.7604 74.9703 12.1875C75.4807 11.6198 75.7411 10.8541 75.7411 9.89581C75.7411 8.86977 75.3453 8.20311 74.5536 7.89581C73.7619 7.59373 72.9338 7.43227 72.0744 7.41665H68.6369V13.3958ZM76.8661 30.2916L70.2619 19.75L68.6369 19.6458V30.375C66.8869 31.2812 65.5328 31.7344 64.5744 31.75C62.4182 31.75 61.0328 30.7916 60.4078 28.875V0.708313H72.0119C75.6057 0.723938 78.5744 1.58331 80.9078 3.29165C83.2515 4.99998 84.4286 7.21873 84.4286 9.93748C84.4286 11.7291 83.7255 13.6458 82.3244 15.6875C80.9338 17.7291 80.038 18.7708 79.6369 18.8125L86.8036 30.0208C83.6369 31.1771 81.4963 31.75 80.3869 31.75C79.0953 31.75 77.9182 31.2656 76.8661 30.2916Z" fill="#FCF8E8"/>
<path d="M103.136 11.0417L100.615 16.7292H105.657L103.136 11.0417ZM106.511 21.9375L99.8233 22.3125L96.6358 30.5833C94.5785 31.1979 93.0368 31.5 92.0108 31.5C90.3441 31.5 88.8545 30.6771 87.5524 29.0208L98.1566 1.6875C101.516 0.770833 103.73 0.3125 104.802 0.3125C106.287 0.3125 107.724 0.885416 109.115 2.02083L118.927 30.375C115.703 31.1823 113.584 31.5833 112.573 31.5833C110.917 31.5833 109.761 30.8854 109.094 29.4792L106.511 21.9375Z" fill="#FCF8E8"/>
<path d="M120.904 28.6875L122.258 1.9375C124.06 0.6875 125.534 0.0625 126.674 0.0625C128.091 0.0625 129.492 0.598959 130.883 1.66667L139.049 13.7917V1.4375C141.841 0.536459 143.737 0.057292 144.737 0C146.654 0.182292 148.018 1.04167 148.841 2.58333V30.6667C146.591 31.2917 145.008 31.6146 144.091 31.6458C142.716 31.6458 141.435 31.2448 140.258 30.4375L131.258 17.1042L130.549 30.8125C127.575 31.3698 125.716 31.6458 124.966 31.6458C122.716 31.6458 121.362 30.6615 120.904 28.6875Z" fill="#FCF8E8"/>
<path d="M150.96 1.35417C154.887 0.661459 157.314 0.3125 158.23 0.3125C159.314 0.3125 160.548 0.739584 161.939 1.58333L165.585 7.14583L169.689 1C172.006 0.541667 173.605 0.3125 174.48 0.3125C176.241 0.3125 177.783 1.34375 179.105 3.39583L170.355 16.5417V30.8125C167.699 31.4219 165.923 31.7344 165.022 31.75C163.199 31.75 161.783 30.8542 160.772 29.0625V16.2917L150.96 1.35417Z" fill="#FCF8E8"/>
<path d="M194.269 11.0417L191.748 16.7292H196.79L194.269 11.0417ZM197.644 21.9375L190.956 22.3125L187.769 30.5833C185.712 31.1979 184.17 31.5 183.144 31.5C181.477 31.5 179.988 30.6771 178.686 29.0208L189.29 1.6875C192.649 0.770833 194.863 0.3125 195.936 0.3125C197.42 0.3125 198.858 0.885416 200.248 2.02083L210.061 30.375C206.837 31.1823 204.717 31.5833 203.706 31.5833C202.05 31.5833 200.894 30.8854 200.227 29.4792L197.644 21.9375Z" fill="#FCF8E8"/>
<path d="M222.307 13.4375L225.12 13.2708C226.13 13.2187 226.813 12.8281 227.162 12.1042C227.505 11.3854 227.682 10.5625 227.682 9.64582C227.682 9.05207 227.453 8.52082 226.995 8.06249C226.537 7.60416 225.599 7.36978 224.182 7.35416H222.307V13.4375ZM212.599 0.666656H222.912C227.287 0.765615 230.599 1.61978 232.849 3.22916C235.11 4.82812 236.245 6.88541 236.245 9.39582C236.245 11.5521 235.521 13.6823 234.078 15.7917C232.63 17.9062 230.235 19.0312 226.891 19.1667L222.307 19.5417V30.875C219.432 31.3646 217.584 31.6146 216.766 31.6458C214.443 31.6458 213.057 30.6875 212.599 28.7708V0.666656Z" fill="#FCF8E8"/>
<path d="M256.91 16.0833C256.91 13.7656 256.545 11.9375 255.827 10.6041C255.103 9.2604 253.853 8.58331 252.077 8.58331C250.129 8.58331 248.858 9.1354 248.264 10.2291C247.681 11.3125 247.389 13.2656 247.389 16.0833C247.389 19.0729 247.728 21.1146 248.41 22.2083C249.103 23.3073 250.327 23.8541 252.077 23.8541C254.077 23.8541 255.379 23.2864 255.993 22.1458C256.603 21.0104 256.91 18.9896 256.91 16.0833ZM237.702 15.7291C237.702 11.8281 238.868 8.3229 241.202 5.20831C243.535 2.08331 247.202 0.520813 252.202 0.520813C257.019 0.520813 260.644 2.10415 263.077 5.27081C265.504 8.43748 266.722 11.9271 266.722 15.7291C266.722 20.2187 265.67 24 263.577 27.0833C261.493 30.1562 257.702 31.6875 252.202 31.6875C247.061 31.6875 243.358 30.1146 241.097 26.9583C238.832 23.7916 237.702 20.0521 237.702 15.7291Z" fill="#FCF8E8"/>
<path d="M270.282 28.6875L271.637 1.9375C273.439 0.6875 274.913 0.0625 276.053 0.0625C277.47 0.0625 278.871 0.598959 280.262 1.66667L288.428 13.7917V1.4375C291.22 0.536459 293.116 0.057292 294.116 0C296.032 0.182292 297.397 1.04167 298.22 2.58333V30.6667C295.97 31.2917 294.387 31.6146 293.47 31.6458C292.095 31.6458 290.814 31.2448 289.637 30.4375L280.637 17.1042L279.928 30.8125C276.954 31.3698 275.095 31.6458 274.345 31.6458C272.095 31.6458 270.741 30.6615 270.282 28.6875Z" fill="#FCF8E8"/>
<path d="M316.276 31.6042C310.786 31.6042 306.943 30.0625 304.734 26.9792C302.536 23.8958 301.443 20.2396 301.443 16C301.469 11.9739 302.698 8.36457 305.13 5.16666C307.557 1.95832 311.281 0.354156 316.297 0.354156C320.849 0.354156 324.672 2.24999 327.755 6.04166C328.599 6.72395 329.026 7.24999 329.026 7.62499C328.927 9.39062 326.385 10.2708 321.401 10.2708C320.151 9.05207 319.266 8.41666 318.755 8.37499C318.24 8.32291 317.422 8.29166 316.297 8.29166C314.713 8.29166 313.161 8.87499 311.651 10.0417C310.135 11.1979 309.38 13.1823 309.38 16C309.38 19.1823 310.057 21.3333 311.422 22.4583C312.797 23.5833 314.411 24.1458 316.276 24.1458C318.203 24.1458 319.448 23.6823 320.005 22.75C320.557 21.8229 320.838 20.9167 320.838 20.0417L315.922 20.5C314.906 19.0833 314.391 17.8646 314.38 16.8333C314.38 15.8073 315.005 15.0208 316.255 14.4792L329.609 13.5L330.047 17.7708C330.047 21.3698 328.927 24.5781 326.693 27.3958C324.453 30.2031 320.984 31.6042 316.276 31.6042Z" fill="#FCF8E8"/>
</svg>
